<?xml version="1.0" standalone="no"?><!DOCTYPE svg PUBLIC "-//W3C//DTD SVG 1.1//EN" "http://www.w3.org/Graphics/SVG/1.1/DTD/svg11.dtd"><svg t="1698990432295" class="icon" viewBox="0 0 1024 1024" version="1.1" xmlns="http://www.w3.org/2000/svg" p-id="5567" xmlns:xlink="http://www.w3.org/1999/xlink" width="32" height="32"><path d="M800 160c35.3 0 64 28.7 64 64v576c0 35.3-28.7 64-64 64H224c-35.3 0-64-28.7-64-64v-576c0-35.3 28.7-64 64-64h576m0-64H224c-70.7 0-128 57.3-128 128v576c0 70.7 57.3 128 128 128h576c70.7 0 128-57.3 128-128v-576c0.1-70.7-57.3-128-128-128z" fill="#1C1C1C" p-id="5568"></path><path d="M768 832H256c-35.4 0-64-28.7-64-64v-512c0-35.4 28.7-64 64-64h512c35.4 0 64 28.7 64 64v512c0 35.4-28.6 64-64 64z" fill="#FCDC3F" p-id="5569"></path><path d="M768 256v512H256v-512h512m0-64H256c-35.4 0-64 28.7-64 64v512c0 35.3 28.7 64 64 64h512c35.3 0 64-28.7 64-64v-512c0-35.4-28.6-64-64-64z" fill="#1C1C1C" p-id="5570"></path><path d="M256 480h544.1v64H256v-64z" fill="#1C1C1C" p-id="5571"></path><path d="M480 224h64V768.1h-64V224z" fill="#1C1C1C" p-id="5572"></path><path d="M320 320m-32 0a32 32 0 1 0 64 0 32 32 0 1 0-64 0Z" fill="#FFFFFF" p-id="5573"></path></svg>