<svg xmlns="http://www.w3.org/2000/svg" xmlns:xlink="http://www.w3.org/1999/xlink" width="869.2695617675781" height="644.059814453125" viewBox="0 0 869.2695617675781 644.059814453125" fill="none"><g opacity="1"  transform="translate(0.004791259765625 0)  rotate(0)"><path id="路径 1" fill-rule="evenodd" style="fill:#FF8D76" opacity="1" d="M1.16 385.33C13.64 465.38 104.45 503.27 116.5 495.52C128.55 487.77 54.1 446.46 46.78 388.78C39.46 331.1 101.65 328.93 101.65 328.93L80.6 273.2C80.6 273.2 -11.32 305.28 1.16 385.33Z"></path><path id="路径 4" fill-rule="evenodd" style="fill:#FF8D76" opacity="1" d="M746.605 131.726C752.505 106.866 739.695 59.7158 732.775 32.8158C725.855 5.91582 713.555 12.3158 698.435 26.6658C683.315 41.0158 664.615 87.1358 664.615 87.1358C664.615 87.1358 693.825 110.966 746.605 131.726Z"></path><path id="路径 5" fill-rule="evenodd" style="fill:#FF8D76" opacity="1" d="M729.235 416.95C757.565 420.03 788.345 419.85 799.235 407.38C810.125 394.91 812.235 372.7 807.095 362.63C801.955 352.56 770.705 343.84 754.475 336.32C704.455 339.57 663.235 373.47 663.235 373.47C663.235 373.47 700.905 413.87 729.235 416.95Z"></path><path id="路径 6" fill-rule="evenodd" style="fill:#FEA691" opacity="1" d="M553.459 28.2C545.559 15.12 540.129 -5.88 521.689 1.55C503.249 8.98 484.019 65.61 482.689 90.72C481.359 115.83 470.129 157.08 461.169 157.34C452.209 157.6 323.309 116.6 233.639 124.54C143.969 132.48 102.199 171.7 82.2087 226.28C62.2187 280.86 65.0487 349.01 106.039 377.45C147.029 405.89 148.319 409.45 143.969 415.88C139.619 422.31 128.079 428.44 138.329 441.51C148.579 454.58 176.509 453.81 212.629 448.17C248.749 442.53 301.519 436.9 323.059 437.92C344.599 438.94 364.319 437.92 371.499 428.7C378.679 419.48 379.309 410.76 377.899 406.15C409.899 408.45 465.269 404.99 493.719 394.62C526.389 427.67 550.599 440.74 575.969 444.62C601.339 448.5 635.149 446.16 645.149 437.7C655.039 429.33 649.489 389.21 614.029 372.06C613.639 371.88 613.249 371.7 612.859 371.51C613.249 371.69 613.639 371.88 614.029 372.06C662.229 394.53 720.209 386.35 750.459 366.98C786.309 344.09 797.879 308.26 789.679 278.71C783.809 257.52 777.679 244.71 776.159 207.27C774.639 169.83 766.599 122.37 733.799 103.58C700.999 84.79 656.759 69.72 575.969 83.3C575.969 83.3 561.359 41.28 553.459 28.2ZM614.029 372.06C613.639 371.88 613.249 371.69 612.859 371.51C613.249 371.7 613.639 371.88 614.029 372.06Z"></path><path  id="路径 9" style="fill:#FF8D76; opacity:1;" d="M479.186 360.817M479.186 360.817Q479.647 362.018 480.462 364.003Q482.1 367.993 483.839 371.83Q489.319 383.926 493.624 389.842Q493.689 389.931 493.749 390.024Q493.81 390.116 493.866 390.211Q493.921 390.307 493.973 390.405Q494.024 390.503 494.07 390.603Q494.116 390.703 494.158 390.806Q494.199 390.908 494.235 391.012Q494.272 391.117 494.303 391.223Q494.334 391.329 494.36 391.436Q494.386 391.543 494.406 391.652Q494.427 391.76 494.442 391.87Q494.457 391.979 494.467 392.089Q494.477 392.199 494.481 392.31Q494.486 392.42 494.485 392.531Q494.484 392.641 494.477 392.751Q494.471 392.862 494.459 392.971Q494.447 393.081 494.43 393.19Q494.413 393.3 494.39 393.408Q494.368 393.516 494.34 393.623Q494.312 393.73 494.279 393.835Q494.246 393.94 494.208 394.044Q494.17 394.148 494.126 394.25Q494.083 394.351 494.035 394.451Q493.987 394.55 493.934 394.647Q493.881 394.744 493.823 394.838Q493.766 394.932 493.703 395.024Q493.641 395.115 493.575 395.203Q493.508 395.291 493.437 395.376Q493.366 395.461 493.291 395.542Q493.216 395.623 493.138 395.701Q493.059 395.778 492.976 395.851Q492.894 395.925 492.808 395.994Q492.722 396.063 492.632 396.128Q492.543 396.193 492.451 396.254Q492.358 396.314 492.263 396.37Q492.168 396.426 492.07 396.477Q491.972 396.529 491.872 396.575Q491.771 396.621 491.669 396.663Q491.567 396.704 491.462 396.74Q491.358 396.776 491.252 396.808Q491.146 396.839 491.038 396.865Q490.931 396.89 490.823 396.911Q490.714 396.932 490.605 396.947Q490.495 396.962 490.385 396.972Q490.275 396.982 490.165 396.986Q490.054 396.99 489.944 396.989Q489.833 396.988 489.723 396.982Q489.613 396.976 489.503 396.964Q489.393 396.952 489.284 396.935Q489.175 396.918 489.067 396.895Q488.959 396.872 488.852 396.845Q488.745 396.817 488.639 396.784Q488.534 396.751 488.43 396.713Q488.327 396.674 488.225 396.631Q488.123 396.588 488.024 396.54Q487.924 396.492 487.827 396.439Q487.731 396.386 487.636 396.328Q487.542 396.271 487.451 396.208Q487.359 396.146 487.271 396.08Q487.183 396.013 487.098 395.942Q487.014 395.871 486.933 395.796Q486.851 395.721 486.774 395.643Q486.697 395.564 486.623 395.481Q486.55 395.399 486.48 395.313Q486.411 395.227 486.346 395.137Q481.501 388.478 475.641 375.544Q473.836 371.56 472.136 367.421Q471.282 365.341 470.784 364.043Q470.744 363.94 470.71 363.835Q470.675 363.73 470.646 363.623Q470.617 363.517 470.593 363.409Q470.569 363.301 470.55 363.192Q470.531 363.083 470.518 362.974Q470.504 362.864 470.496 362.754Q470.488 362.644 470.486 362.533Q470.483 362.423 470.486 362.312Q470.489 362.202 470.497 362.092Q470.506 361.982 470.519 361.872Q470.533 361.762 470.552 361.654Q470.571 361.545 470.596 361.437Q470.62 361.329 470.65 361.223Q470.679 361.116 470.714 361.012Q470.749 360.907 470.789 360.804Q470.829 360.701 470.874 360.6Q470.919 360.499 470.968 360.4Q471.018 360.302 471.073 360.206Q471.127 360.11 471.187 360.016Q471.246 359.923 471.31 359.833Q471.373 359.743 471.441 359.656Q471.51 359.569 471.582 359.485Q471.654 359.402 471.73 359.322Q471.807 359.242 471.887 359.166Q471.967 359.09 472.051 359.018Q472.134 358.946 472.222 358.878Q472.309 358.81 472.399 358.747Q472.49 358.683 472.583 358.624Q472.677 358.565 472.773 358.511Q472.869 358.457 472.968 358.407Q473.066 358.358 473.167 358.313Q473.269 358.268 473.372 358.229Q473.475 358.189 473.58 358.155Q473.685 358.12 473.791 358.091Q473.898 358.062 474.005 358.038Q474.113 358.013 474.222 357.995Q474.331 357.976 474.441 357.963Q474.55 357.949 474.661 357.941Q474.771 357.933 474.881 357.931Q474.992 357.928 475.102 357.931Q475.212 357.934 475.323 357.942Q475.433 357.951 475.542 357.964Q475.652 357.978 475.761 357.997Q475.87 358.016 475.977 358.04Q476.085 358.065 476.192 358.094Q476.298 358.124 476.403 358.159Q476.508 358.194 476.611 358.234Q476.714 358.274 476.815 358.318Q476.916 358.363 477.014 358.413Q477.113 358.463 477.209 358.518Q477.305 358.572 477.398 358.631Q477.491 358.691 477.581 358.754Q477.672 358.818 477.759 358.886Q477.846 358.954 477.929 359.027Q478.013 359.099 478.093 359.175Q478.173 359.252 478.249 359.332Q478.325 359.412 478.397 359.496Q478.469 359.579 478.537 359.667Q478.604 359.754 478.668 359.844Q478.731 359.935 478.79 360.028Q478.849 360.121 478.904 360.218Q478.958 360.314 479.007 360.413Q479.057 360.511 479.102 360.612Q479.146 360.713 479.186 360.817Z"></path><path  id="路径 10" style="fill:#FF8D76; opacity:1;" d="M234.558 264.143M234.558 264.143Q247.562 266.839 262.195 274.708Q291.869 290.665 300.907 317.325Q310.955 346.967 294.179 373.239Q280.056 395.355 255.219 404.966Q255.116 405.006 255.011 405.041Q254.906 405.076 254.8 405.105Q254.693 405.135 254.585 405.159Q254.478 405.184 254.369 405.203Q254.26 405.222 254.15 405.235Q254.041 405.249 253.931 405.257Q253.82 405.265 253.71 405.268Q253.6 405.271 253.489 405.268Q253.379 405.266 253.269 405.258Q253.158 405.25 253.049 405.236Q252.939 405.223 252.83 405.204Q252.721 405.185 252.613 405.161Q252.506 405.137 252.399 405.108Q252.293 405.079 252.188 405.044Q252.083 405.01 251.98 404.97Q251.877 404.93 251.776 404.886Q251.675 404.841 251.576 404.791Q251.477 404.742 251.381 404.687Q251.285 404.633 251.191 404.574Q251.098 404.515 251.008 404.452Q250.917 404.388 250.83 404.32Q250.743 404.252 250.659 404.18Q250.575 404.108 250.495 404.032Q250.415 403.956 250.339 403.876Q250.263 403.796 250.19 403.713Q250.118 403.629 250.05 403.542Q249.982 403.455 249.918 403.365Q249.855 403.274 249.796 403.181Q249.736 403.088 249.682 402.992Q249.627 402.896 249.577 402.797Q249.528 402.699 249.483 402.598Q249.438 402.497 249.398 402.394Q249.358 402.291 249.323 402.186Q249.289 402.081 249.259 401.975Q249.23 401.868 249.205 401.76Q249.181 401.653 249.162 401.544Q249.143 401.435 249.129 401.325Q249.116 401.216 249.107 401.105Q249.099 400.995 249.096 400.885Q249.093 400.774 249.096 400.664Q249.099 400.554 249.107 400.443Q249.115 400.333 249.128 400.224Q249.141 400.114 249.16 400.005Q249.179 399.896 249.203 399.788Q249.227 399.681 249.257 399.574Q249.286 399.468 249.32 399.363Q249.355 399.258 249.395 399.155Q249.434 399.051 249.479 398.95Q249.524 398.849 249.573 398.751Q249.623 398.652 249.677 398.556Q249.731 398.46 249.79 398.366Q249.849 398.273 249.913 398.182Q249.976 398.092 250.044 398.005Q250.112 397.918 250.184 397.834Q250.256 397.75 250.332 397.67Q250.408 397.59 250.488 397.514Q250.568 397.438 250.652 397.365Q250.735 397.293 250.822 397.225Q250.909 397.157 251 397.093Q251.09 397.03 251.183 396.97Q251.277 396.911 251.373 396.857Q251.469 396.802 251.567 396.752Q251.666 396.703 251.767 396.658Q251.868 396.613 251.971 396.573Q274.058 388.026 286.593 368.395Q301.045 345.764 292.383 320.214Q284.483 296.912 257.932 282.634Q244.453 275.386 232.731 272.956Q232.623 272.934 232.516 272.906Q232.409 272.878 232.304 272.845Q232.199 272.812 232.095 272.774Q231.991 272.736 231.889 272.693Q231.788 272.65 231.688 272.602Q231.589 272.554 231.492 272.501Q231.395 272.448 231.3 272.391Q231.206 272.333 231.115 272.271Q231.023 272.209 230.935 272.142Q230.847 272.076 230.762 272.005Q230.677 271.934 230.596 271.86Q230.515 271.785 230.437 271.706Q230.36 271.627 230.286 271.545Q230.213 271.462 230.143 271.376Q230.074 271.29 230.009 271.201Q229.944 271.112 229.883 271.02Q229.823 270.927 229.767 270.832Q229.711 270.737 229.659 270.639Q229.608 270.541 229.562 270.441Q229.515 270.341 229.474 270.238Q229.432 270.136 229.396 270.032Q229.359 269.927 229.328 269.821Q229.297 269.715 229.271 269.608Q229.245 269.501 229.224 269.392Q229.204 269.284 229.188 269.174Q229.173 269.065 229.163 268.955Q229.153 268.845 229.149 268.734Q229.144 268.624 229.145 268.513Q229.146 268.403 229.152 268.293Q229.158 268.182 229.17 268.073Q229.182 267.963 229.199 267.854Q229.216 267.744 229.238 267.636Q229.261 267.528 229.289 267.421Q229.316 267.314 229.349 267.209Q229.382 267.103 229.42 267Q229.458 266.896 229.501 266.794Q229.544 266.693 229.592 266.593Q229.64 266.494 229.693 266.397Q229.746 266.3 229.804 266.205Q229.861 266.111 229.923 266.02Q229.985 265.928 230.052 265.84Q230.119 265.752 230.189 265.667Q230.26 265.582 230.335 265.501Q230.41 265.42 230.488 265.342Q230.567 265.265 230.65 265.191Q230.732 265.118 230.818 265.048Q230.904 264.979 230.993 264.914Q231.083 264.849 231.175 264.788Q231.267 264.727 231.362 264.671Q231.458 264.615 231.555 264.564Q231.653 264.513 231.754 264.466Q231.854 264.42 231.956 264.379Q232.059 264.337 232.163 264.301Q232.267 264.264 232.373 264.233Q232.479 264.202 232.586 264.176Q232.694 264.15 232.802 264.129Q232.911 264.109 233.02 264.093Q233.13 264.078 233.24 264.068Q233.35 264.058 233.46 264.053Q233.57 264.049 233.681 264.05Q233.791 264.051 233.902 264.057Q234.012 264.063 234.122 264.075Q234.232 264.087 234.341 264.104Q234.45 264.121 234.558 264.143Z"></path><path  id="路径 11" style="fill:#FF8D76; opacity:1;" d="M281.901 377.422M281.901 377.422Q311.754 379.057 335.567 377.426Q369.808 375.08 382.029 404.415Q382.071 404.517 382.109 404.62Q382.146 404.724 382.178 404.83Q382.211 404.936 382.238 405.043Q382.265 405.15 382.286 405.258Q382.308 405.367 382.325 405.476Q382.341 405.585 382.352 405.695Q382.363 405.805 382.369 405.915Q382.375 406.025 382.375 406.136Q382.375 406.246 382.37 406.357Q382.365 406.467 382.354 406.577Q382.343 406.687 382.327 406.796Q382.311 406.906 382.29 407.014Q382.269 407.122 382.242 407.23Q382.216 407.337 382.184 407.443Q382.152 407.548 382.115 407.652Q382.078 407.757 382.036 407.859Q381.994 407.961 381.947 408.061Q381.9 408.161 381.848 408.258Q381.796 408.356 381.739 408.451Q381.683 408.546 381.621 408.638Q381.56 408.729 381.495 408.818Q381.429 408.907 381.359 408.993Q381.289 409.078 381.215 409.16Q381.141 409.242 381.063 409.321Q380.985 409.399 380.904 409.473Q380.822 409.548 380.737 409.618Q380.651 409.688 380.563 409.754Q380.474 409.82 380.382 409.882Q380.291 409.943 380.196 410Q380.102 410.057 380.004 410.109Q379.907 410.162 379.807 410.209Q379.707 410.257 379.605 410.299Q379.503 410.342 379.399 410.379Q379.296 410.416 379.19 410.449Q379.084 410.481 378.977 410.508Q378.87 410.535 378.762 410.557Q378.653 410.579 378.544 410.595Q378.435 410.611 378.325 410.622Q378.215 410.634 378.105 410.639Q377.994 410.645 377.884 410.645Q377.773 410.645 377.663 410.64Q377.553 410.635 377.443 410.624Q377.333 410.614 377.224 410.598Q377.114 410.582 377.006 410.56Q376.898 410.539 376.79 410.512Q376.683 410.486 376.577 410.454Q376.472 410.422 376.367 410.385Q376.263 410.348 376.161 410.306Q376.059 410.264 375.959 410.217Q375.859 410.17 375.762 410.118Q375.664 410.066 375.569 410.01Q375.474 409.953 375.382 409.892Q375.29 409.831 375.202 409.765Q375.113 409.699 375.027 409.63Q374.942 409.56 374.86 409.486Q374.778 409.411 374.699 409.334Q374.621 409.256 374.547 409.174Q374.472 409.092 374.402 409.007Q374.332 408.922 374.266 408.833Q374.2 408.745 374.138 408.653Q374.077 408.561 374.02 408.466Q373.963 408.372 373.911 408.275Q373.858 408.177 373.811 408.077Q373.763 407.978 373.721 407.876Q363.983 384.5 336.182 386.405Q311.816 388.074 281.409 386.408Q281.298 386.402 281.189 386.391Q281.079 386.379 280.97 386.363Q280.86 386.346 280.752 386.324Q280.644 386.301 280.537 386.274Q280.43 386.247 280.324 386.214Q280.219 386.181 280.115 386.143Q280.011 386.106 279.909 386.063Q279.808 386.02 279.708 385.972Q279.608 385.924 279.511 385.872Q279.414 385.819 279.32 385.762Q279.225 385.704 279.134 385.643Q279.042 385.581 278.954 385.514Q278.865 385.448 278.781 385.378Q278.695 385.307 278.614 385.232Q278.533 385.158 278.455 385.079Q278.377 385.001 278.304 384.918Q278.23 384.836 278.16 384.75Q278.091 384.664 278.025 384.575Q277.96 384.486 277.899 384.394Q277.838 384.302 277.782 384.207Q277.726 384.112 277.674 384.014Q277.623 383.916 277.576 383.816Q277.529 383.716 277.488 383.614Q277.446 383.511 277.409 383.407Q277.373 383.303 277.341 383.197Q277.31 383.091 277.284 382.984Q277.257 382.877 277.236 382.768Q277.216 382.66 277.2 382.55Q277.184 382.441 277.174 382.331Q277.164 382.221 277.159 382.111Q277.154 382 277.155 381.89Q277.156 381.779 277.162 381.669Q277.168 381.559 277.179 381.449Q277.19 381.339 277.207 381.23Q277.224 381.121 277.246 381.012Q277.268 380.904 277.296 380.797Q277.323 380.69 277.356 380.585Q277.389 380.479 277.426 380.375Q277.464 380.271 277.507 380.17Q277.55 380.068 277.598 379.968Q277.646 379.869 277.698 379.772Q277.751 379.674 277.808 379.58Q277.865 379.486 277.927 379.394Q277.989 379.303 278.055 379.214Q278.122 379.126 278.192 379.041Q278.263 378.956 278.338 378.874Q278.412 378.793 278.491 378.715Q278.569 378.638 278.652 378.564Q278.734 378.49 278.82 378.421Q278.905 378.351 278.995 378.286Q279.084 378.22 279.176 378.159Q279.268 378.099 279.363 378.042Q279.458 377.986 279.556 377.935Q279.654 377.883 279.754 377.836Q279.854 377.79 279.956 377.748Q280.058 377.706 280.163 377.67Q280.267 377.633 280.373 377.602Q280.479 377.57 280.586 377.544Q280.693 377.518 280.802 377.497Q280.91 377.476 281.02 377.46Q281.129 377.445 281.239 377.434Q281.349 377.424 281.459 377.419Q281.57 377.415 281.68 377.415Q281.791 377.416 281.901 377.422Z"></path><path id="路径 12" fill-rule="evenodd" style="fill:#FFD3B3" opacity="1" d="M560.3 91.292C562.14 65.432 533.99 22.652 527.3 24.652C520.61 26.652 518.17 47.932 518.3 66.652C518.43 85.372 539.06 96.372 539.06 96.372C539.06 96.372 547.7 95.752 560.3 91.292Z"></path><path  id="路径 13" style="fill:#FF8D76; opacity:1;" d="M577.129 87.6466M577.129 87.6466Q575.808 88.0002 573.606 88.6488Q569.178 89.9533 564.858 91.4072Q551.206 96.0014 543.888 100.259Q543.792 100.315 543.694 100.366Q543.596 100.416 543.496 100.462Q543.395 100.508 543.293 100.549Q543.19 100.59 543.086 100.626Q542.981 100.662 542.875 100.693Q542.769 100.723 542.661 100.749Q542.554 100.774 542.445 100.794Q542.337 100.814 542.227 100.829Q542.118 100.844 542.008 100.853Q541.897 100.863 541.787 100.867Q541.677 100.871 541.566 100.869Q541.456 100.868 541.346 100.861Q541.235 100.854 541.125 100.842Q541.016 100.83 540.907 100.812Q540.798 100.794 540.69 100.771Q540.581 100.748 540.475 100.72Q540.368 100.692 540.263 100.659Q540.157 100.625 540.054 100.587Q539.95 100.548 539.849 100.504Q539.747 100.461 539.648 100.412Q539.549 100.364 539.452 100.31Q539.355 100.257 539.261 100.199Q539.167 100.141 539.076 100.078Q538.985 100.016 538.897 99.949Q538.809 99.882 538.725 99.8108Q538.641 99.7397 538.56 99.6644Q538.479 99.5892 538.402 99.51Q538.324 99.4309 538.251 99.3481Q538.178 99.2653 538.109 99.179Q538.04 99.0927 537.976 99.0031Q537.911 98.9136 537.851 98.8209Q537.791 98.7283 537.735 98.6328Q537.68 98.5373 537.629 98.4392Q537.578 98.3411 537.532 98.2407Q537.486 98.1402 537.445 98.0376Q537.404 97.935 537.368 97.8305Q537.333 97.726 537.302 97.6199Q537.271 97.5138 537.246 97.4063Q537.22 97.2988 537.2 97.1902Q537.18 97.0815 537.165 96.9721Q537.15 96.8626 537.141 96.7525Q537.132 96.6425 537.128 96.5321Q537.124 96.4217 537.125 96.3112Q537.126 96.2007 537.133 96.0905Q537.14 95.9802 537.152 95.8704Q537.165 95.7607 537.182 95.6516Q537.2 95.5426 537.223 95.4345Q537.246 95.3264 537.274 95.2196Q537.302 95.1128 537.336 95.0075Q537.369 94.9023 537.408 94.7987Q537.446 94.6952 537.49 94.5937Q537.534 94.4922 537.582 94.393Q537.631 94.2937 537.684 94.197Q537.737 94.1003 537.795 94.0063Q537.853 93.9122 537.916 93.8212Q537.978 93.7301 538.045 93.6423Q538.112 93.5544 538.184 93.4699Q538.255 93.3855 538.33 93.3046Q538.405 93.2237 538.484 93.1466Q538.563 93.0695 538.646 92.9964Q538.729 92.9233 538.815 92.8543Q538.902 92.7854 538.991 92.7207Q539.081 92.6561 539.173 92.5959Q539.266 92.5357 539.362 92.4802Q547.469 87.7629 561.987 82.8772Q566.47 81.3686 571.063 80.0156Q573.372 79.3354 574.801 78.9528Q574.908 78.9242 575.016 78.9009Q575.124 78.8776 575.233 78.8596Q575.342 78.8417 575.451 78.8291Q575.561 78.8165 575.671 78.8092Q575.782 78.802 575.892 78.8003Q576.003 78.7985 576.113 78.8021Q576.223 78.8058 576.333 78.8148Q576.443 78.8239 576.553 78.8383Q576.662 78.8527 576.771 78.8725Q576.88 78.8923 576.987 78.9174Q577.095 78.9426 577.201 78.9729Q577.307 79.0033 577.412 79.0388Q577.517 79.0743 577.62 79.1149Q577.722 79.1556 577.823 79.2012Q577.923 79.2468 578.022 79.2973Q578.12 79.3478 578.216 79.403Q578.311 79.4583 578.404 79.5182Q578.497 79.578 578.587 79.6424Q578.676 79.7068 578.763 79.7755Q578.849 79.8441 578.932 79.917Q579.016 79.9899 579.095 80.0667Q579.174 80.1435 579.25 80.2242Q579.325 80.3048 579.397 80.3891Q579.468 80.4733 579.535 80.561Q579.603 80.6486 579.665 80.7395Q579.728 80.8303 579.787 80.9242Q579.845 81.018 579.899 81.1146Q579.952 81.2111 580.001 81.3102Q580.05 81.4093 580.094 81.5107Q580.138 81.612 580.177 81.7154Q580.216 81.8188 580.249 81.924Q580.283 82.0292 580.312 82.1359Q580.34 82.2426 580.364 82.3506Q580.387 82.4586 580.405 82.5676Q580.423 82.6766 580.435 82.7863Q580.448 82.8961 580.455 83.0063Q580.462 83.1165 580.464 83.227Q580.466 83.3374 580.462 83.4478Q580.459 83.5583 580.45 83.6684Q580.441 83.7785 580.426 83.888Q580.412 83.9975 580.392 84.1062Q580.372 84.2149 580.347 84.3224Q580.322 84.43 580.292 84.5362Q580.261 84.6424 580.226 84.747Q580.19 84.8516 580.149 84.9544Q580.109 85.0571 580.063 85.1577Q580.018 85.2583 579.967 85.3566Q579.917 85.4548 579.861 85.5505Q579.806 85.6461 579.746 85.739Q579.686 85.8318 579.622 85.9216Q579.558 86.0114 579.489 86.0979Q579.42 86.1844 579.347 86.2674Q579.275 86.3505 579.198 86.4298Q579.121 86.5092 579.04 86.5847Q578.96 86.6602 578.875 86.7317Q578.791 86.8031 578.703 86.8703Q578.616 86.9376 578.525 87.0004Q578.434 87.0633 578.34 87.1216Q578.246 87.1799 578.15 87.2335Q578.053 87.2872 577.954 87.336Q577.855 87.3849 577.754 87.4288Q577.652 87.4727 577.549 87.5116Q577.446 87.5505 577.34 87.5842Q577.235 87.618 577.129 87.6466Z"></path><path id="路径 14" fill-rule="evenodd" style="fill:#E1ECFF" opacity="1" d="M444.255 478.28L422.475 482.38C419.535 474.24 417.395 465.83 416.075 457.27C361.115 498.44 256.185 536.44 256.185 536.44C256.185 536.44 276.855 542.07 280.705 548.99C284.555 555.91 274.195 561.05 276.605 565.14C279.015 569.23 308.215 572.93 314.015 576.14C319.815 579.35 334.025 593.7 354.015 601.26C374.005 608.82 412.795 611.26 412.795 611.26C412.795 611.26 405.235 630.47 409.625 632.01C414.015 633.55 431.575 630.86 436.015 630.73C440.455 630.6 444.175 634.32 448.015 644.06C508.745 604.85 553.455 521.58 553.455 521.58L529.075 514.65L515.235 493.65L451.685 496.85L444.255 478.28Z"></path><path id="路径 15" fill-rule="evenodd" style="fill:#E1ECFF" opacity="1" d="M169.245 521.41ZM215.195 530.63L206.825 524.14L211.605 516.62L169.245 521.41L184.615 539.86L215.195 530.63Z"></path><path id="路径 16" fill-rule="evenodd" style="fill:#E1ECFF" opacity="1" d="M665.655 627.407C665.655 627.407 788.815 638.687 869.265 605.547C853.045 600.937 830.665 590.857 830.665 590.857L840.915 579.577C840.915 579.577 812.555 565.057 809.135 561.477C805.715 557.897 823.455 482.197 823.455 482.197C823.455 482.197 791.515 484.197 764.015 482.197C736.515 480.197 675.335 460.637 615.775 482.197C615.775 482.197 629.265 486.637 639.685 497.197C633.175 498.557 627.565 502.667 624.315 508.467C624.315 508.467 634.055 508.297 639.685 512.227C645.315 516.157 642.255 540.927 646.525 561.077C650.795 581.227 654.035 595.927 654.035 600.077C654.035 604.227 665.655 627.407 665.655 627.407Z"></path><path id="路径 17" fill-rule="evenodd" style="fill:#E1ECFF" opacity="1" d="M575.965 638.68C589.795 642.14 605.685 638.68 605.685 638.68C605.685 638.68 599.535 596.79 592.105 576.93C565.325 593.84 546.235 617.93 546.235 617.93C574.935 619.98 562.135 635.22 575.965 638.68Z"></path><path id="路径 18" fill-rule="evenodd" style="fill:#413F4C" opacity="1" d="M701.162 303.269C716.802 303.269 732.912 283.509 726.682 274.399C720.452 265.289 676.822 268.259 670.922 276.529C663.022 287.619 685.522 303.269 701.162 303.269Z"></path><path id="路径 19" fill-rule="evenodd" style="fill:#413F4C" opacity="1" d="M620.035 244.73C613.385 244.73 607.995 250.12 607.995 256.77C607.995 263.42 613.385 268.81 620.035 268.81C626.685 268.81 632.075 263.42 632.075 256.77C632.075 250.12 626.685 244.73 620.035 244.73Z"></path><path id="路径 20" fill-rule="evenodd" style="fill:#413F4C" opacity="1" d="M754.565 244.73C747.915 244.73 742.525 250.12 742.525 256.77C742.525 263.42 747.915 268.81 754.565 268.81C761.215 268.81 766.605 263.42 766.605 256.77C766.605 250.12 761.215 244.73 754.565 244.73Z"></path><path id="路径 21" fill-rule="evenodd" style="fill:#FFD3B3" opacity="1" d="M631.03 199.6C619.46 198.85 608.6 202 608.87 207.11C609.14 212.22 652.37 231.12 655.17 214.2C656.61 205.48 642.6 200.35 631.03 199.6Z"></path><path id="路径 22" fill-rule="evenodd" style="fill:#FFD3B3" opacity="1" d="M758.554 208.418C758.334 203.418 748.924 200.018 739.254 200.418C729.584 200.818 718.194 205.428 720.194 214.008C724.014 230.658 758.774 213.418 758.554 208.418Z"></path><path id="路径 23" fill-rule="evenodd" style="fill:#FF6EA9" opacity="1" d="M703.305 354.13C728.085 352.08 725.085 324.75 725.085 324.75C725.085 324.75 710.555 328 700.555 314.16C692.085 327.66 674.705 329.54 674.705 329.54C674.705 329.54 677.315 356.29 703.305 354.13Z"></path><path  id="路径 24" style="fill:#EA4E95; opacity:1;" d="M704.129 313.776M704.129 313.776Q704.633 317.906 705.185 323.189Q706.293 333.801 706.542 339.672Q706.549 339.844 706.539 340.015Q706.53 340.187 706.503 340.357Q706.477 340.527 706.434 340.693Q706.391 340.86 706.332 341.021Q706.273 341.183 706.198 341.338Q706.124 341.493 706.034 341.639Q705.945 341.786 705.842 341.924Q705.738 342.061 705.622 342.188Q705.506 342.314 705.378 342.429Q705.249 342.544 705.11 342.645Q704.972 342.747 704.824 342.834Q704.676 342.921 704.52 342.994Q704.364 343.066 704.201 343.123Q704.039 343.18 703.872 343.221Q703.705 343.261 703.535 343.285Q703.365 343.309 703.193 343.317Q703.021 343.324 702.849 343.314Q702.678 343.305 702.508 343.278Q702.338 343.252 702.171 343.209Q702.005 343.166 701.843 343.107Q701.682 343.048 701.527 342.973Q701.372 342.899 701.225 342.809Q701.078 342.72 700.941 342.617Q700.803 342.513 700.677 342.397Q700.55 342.281 700.435 342.152Q700.321 342.024 700.219 341.885Q700.118 341.747 700.031 341.599Q699.943 341.451 699.871 341.295Q699.798 341.139 699.741 340.976Q699.685 340.814 699.644 340.647Q699.603 340.48 699.579 340.31Q699.555 340.139 699.548 339.968Q699.309 334.313 698.222 323.916Q697.677 318.693 697.181 314.623Q697.16 314.453 697.156 314.281Q697.152 314.109 697.165 313.937Q697.177 313.766 697.207 313.597Q697.237 313.427 697.283 313.262Q697.329 313.096 697.391 312.936Q697.453 312.775 697.531 312.622Q697.608 312.468 697.7 312.323Q697.793 312.178 697.898 312.043Q698.004 311.907 698.123 311.783Q698.242 311.658 698.372 311.546Q698.503 311.434 698.643 311.335Q698.784 311.237 698.934 311.152Q699.084 311.068 699.241 310.998Q699.398 310.929 699.561 310.875Q699.725 310.821 699.893 310.784Q700.06 310.746 700.231 310.725Q700.402 310.705 700.574 310.701Q700.746 310.697 700.917 310.71Q701.089 310.722 701.258 310.752Q701.427 310.782 701.593 310.828Q701.759 310.874 701.919 310.936Q702.079 310.998 702.233 311.076Q702.386 311.153 702.531 311.245Q702.676 311.337 702.812 311.443Q702.947 311.549 703.072 311.668Q703.196 311.787 703.308 311.917Q703.42 312.048 703.519 312.188Q703.618 312.329 703.702 312.479Q703.787 312.628 703.856 312.786Q703.926 312.943 703.98 313.106Q704.033 313.27 704.071 313.438Q704.108 313.605 704.129 313.776Z"></path><path  id="路径 25" style="fill:#413F4C; opacity:1;" d="M656.49 321.86M656.49 321.86Q656.788 322.008 657.437 322.277Q658.831 322.852 660.435 323.35Q665.604 324.955 670.779 325.117Q677.901 325.338 684.013 322.724Q691.693 319.438 697.515 311.746C699.162 309.57 702.456 309.645 704.001 311.894C699.162 309.57 702.456 309.645 704.001 311.894Q707.708 317.287 713.619 319.675Q718.496 321.646 724.74 321.568Q729.335 321.51 734.151 320.374Q735.652 320.02 736.98 319.604Q737.607 319.408 737.91 319.294L737.909 319.295Q738.093 319.226 738.283 319.175Q738.473 319.124 738.667 319.093Q738.861 319.061 739.057 319.048Q739.253 319.035 739.449 319.042Q739.646 319.049 739.84 319.074Q740.035 319.1 740.226 319.145Q740.418 319.19 740.604 319.253Q740.79 319.316 740.969 319.398Q741.148 319.479 741.318 319.577Q741.488 319.676 741.647 319.79Q741.807 319.905 741.955 320.035Q742.102 320.164 742.237 320.308Q742.371 320.451 742.49 320.607Q742.61 320.763 742.713 320.93Q742.817 321.097 742.904 321.274Q742.991 321.45 743.06 321.634Q743.129 321.818 743.18 322.008Q743.23 322.198 743.262 322.391Q743.294 322.585 743.307 322.781Q743.319 322.978 743.313 323.174Q743.306 323.37 743.28 323.565Q743.254 323.76 743.21 323.951Q743.165 324.143 743.102 324.329Q743.038 324.515 742.957 324.694Q742.876 324.873 742.777 325.043Q742.679 325.213 742.564 325.372Q742.45 325.532 742.32 325.68Q742.19 325.827 742.047 325.961Q741.903 326.096 741.747 326.215Q741.591 326.335 741.424 326.438Q741.257 326.542 741.081 326.629Q740.905 326.715 740.721 326.785L740.72 326.785Q738.859 327.483 735.988 328.16Q730.315 329.498 724.84 329.567Q716.99 329.665 710.622 327.092Q702.478 323.802 697.408 316.425L700.705 314.16L697.408 316.425L700.705 314.16L703.894 316.574Q696.791 325.959 687.159 330.079Q679.421 333.39 670.53 333.113Q664.269 332.918 658.062 330.99Q656.112 330.385 654.384 329.671Q653.472 329.295 652.92 329.019Q652.744 328.932 652.578 328.827Q652.411 328.723 652.256 328.602Q652.101 328.482 651.958 328.347Q651.815 328.212 651.686 328.064Q651.557 327.916 651.443 327.755Q651.33 327.595 651.232 327.425Q651.135 327.254 651.054 327.075Q650.974 326.895 650.911 326.709Q650.849 326.523 650.805 326.331Q650.762 326.14 650.737 325.945Q650.712 325.75 650.706 325.553Q650.701 325.357 650.714 325.161Q650.728 324.965 650.761 324.771Q650.794 324.577 650.846 324.388Q650.897 324.198 650.967 324.014Q651.037 323.831 651.125 323.655Q651.213 323.479 651.317 323.313Q651.422 323.146 651.542 322.991Q651.662 322.836 651.797 322.693Q651.932 322.55 652.08 322.421Q652.229 322.292 652.389 322.178Q652.549 322.064 652.72 321.967Q652.89 321.869 653.07 321.789Q653.249 321.709 653.435 321.646Q653.622 321.584 653.813 321.54Q654.005 321.496 654.2 321.472Q654.395 321.447 654.591 321.441Q654.788 321.436 654.984 321.449Q655.18 321.463 655.373 321.496Q655.567 321.529 655.757 321.58Q655.946 321.632 656.13 321.702Q656.314 321.772 656.49 321.86Z"></path><path id="路径 26" fill-rule="evenodd" style="fill:#99ADF9" opacity="1" d="M370.655 485.51ZM306.235 516.33L394.205 557.28L432.475 514.58L370.655 485.51L306.235 516.33Z"></path><path  id="路径 27" style="fill:#99ADF9; opacity:1;" d="M531.285 557.28L531.285 557.28Q531.285 557.452 531.268 557.623Q531.251 557.794 531.217 557.963Q531.184 558.131 531.134 558.296Q531.084 558.46 531.018 558.619Q530.953 558.778 530.872 558.93Q530.79 559.081 530.695 559.224Q530.599 559.367 530.49 559.5Q530.381 559.633 530.26 559.755Q530.138 559.876 530.005 559.985Q529.872 560.094 529.729 560.19Q529.586 560.285 529.435 560.366Q529.283 560.447 529.124 560.513Q528.965 560.579 528.801 560.629Q528.636 560.679 528.468 560.712Q528.299 560.746 528.128 560.763Q527.957 560.78 527.785 560.78Q527.613 560.78 527.442 560.763Q527.271 560.746 527.102 560.712Q526.933 560.679 526.769 560.629Q526.604 560.579 526.445 560.513Q526.286 560.447 526.135 560.366Q525.983 560.285 525.84 560.19Q525.697 560.094 525.564 559.985Q525.431 559.876 525.31 559.755Q525.188 559.633 525.079 559.5Q524.97 559.367 524.875 559.224Q524.779 559.081 524.698 558.93Q524.617 558.778 524.551 558.619Q524.485 558.46 524.436 558.296Q524.386 558.131 524.352 557.963Q524.318 557.794 524.302 557.623Q524.285 557.452 524.285 557.28L524.285 557.28Q524.285 557.108 524.302 556.937Q524.318 556.766 524.352 556.597Q524.386 556.428 524.436 556.264Q524.485 556.099 524.551 555.94Q524.617 555.781 524.698 555.63Q524.779 555.478 524.875 555.335Q524.97 555.192 525.079 555.059Q525.188 554.926 525.31 554.805Q525.431 554.683 525.564 554.574Q525.697 554.465 525.84 554.37Q525.983 554.274 526.135 554.193Q526.286 554.112 526.445 554.046Q526.604 553.98 526.769 553.93Q526.933 553.881 527.102 553.847Q527.271 553.813 527.442 553.797Q527.613 553.78 527.785 553.78Q527.957 553.78 528.128 553.797Q528.299 553.813 528.468 553.847Q528.636 553.881 528.801 553.93Q528.965 553.98 529.124 554.046Q529.283 554.112 529.435 554.193Q529.586 554.274 529.729 554.37Q529.872 554.465 530.005 554.574Q530.138 554.683 530.26 554.805Q530.381 554.926 530.49 555.059Q530.599 555.192 530.695 555.335Q530.79 555.478 530.871 555.63Q530.953 555.781 531.018 555.94Q531.084 556.099 531.134 556.264Q531.184 556.428 531.217 556.597Q531.251 556.766 531.268 556.937Q531.285 557.108 531.285 557.28ZM461.007 525.02L529.157 554.06Q529.315 554.127 529.466 554.21Q529.617 554.292 529.759 554.389Q529.901 554.486 530.032 554.597Q530.164 554.707 530.285 554.83Q530.405 554.953 530.513 555.087Q530.62 555.221 530.714 555.365Q530.809 555.509 530.888 555.661Q530.968 555.814 531.032 555.973Q531.096 556.133 531.144 556.298Q531.192 556.463 531.224 556.632Q531.256 556.801 531.271 556.972Q531.286 557.143 531.285 557.315Q531.283 557.487 531.264 557.658Q531.246 557.829 531.21 557.997Q531.175 558.166 531.124 558.33Q531.072 558.494 531.005 558.652Q530.937 558.81 530.855 558.961Q530.772 559.112 530.675 559.254Q530.578 559.396 530.468 559.527Q530.357 559.659 530.234 559.779Q530.112 559.9 529.978 560.008Q529.844 560.115 529.7 560.209Q529.556 560.303 529.403 560.383Q529.251 560.463 529.091 560.527Q528.932 560.591 528.767 560.639Q528.602 560.687 528.433 560.719Q528.264 560.751 528.093 560.766Q527.921 560.781 527.749 560.78Q527.578 560.778 527.407 560.759Q527.236 560.741 527.067 560.705Q526.899 560.67 526.735 560.619Q526.571 560.567 526.413 560.5L458.263 531.46Q458.105 531.392 457.954 531.31Q457.803 531.227 457.661 531.13Q457.519 531.033 457.387 530.923Q457.255 530.812 457.135 530.689Q457.015 530.567 456.907 530.433Q456.799 530.299 456.705 530.155Q456.611 530.011 456.532 529.858Q456.452 529.706 456.388 529.546Q456.324 529.387 456.275 529.222Q456.227 529.057 456.195 528.888Q456.163 528.719 456.148 528.547Q456.133 528.376 456.135 528.204Q456.137 528.032 456.155 527.861Q456.174 527.69 456.209 527.522Q456.244 527.354 456.296 527.19Q456.348 527.026 456.415 526.868Q456.482 526.71 456.565 526.559Q456.648 526.408 456.744 526.266Q456.841 526.124 456.952 525.992Q457.062 525.86 457.185 525.74Q457.308 525.62 457.442 525.512Q457.576 525.404 457.72 525.31Q457.864 525.216 458.016 525.136Q458.169 525.057 458.328 524.993Q458.488 524.929 458.653 524.88Q458.818 524.832 458.987 524.8Q459.156 524.768 459.327 524.753Q459.498 524.738 459.67 524.74Q459.842 524.742 460.013 524.76Q460.184 524.779 460.352 524.814Q460.521 524.849 460.685 524.901Q460.849 524.953 461.007 525.02Z"></path><path  id="路径 28" style="fill:#99ADF9; opacity:1;" d="M714.645 584.15L714.645 584.15Q714.645 584.322 714.628 584.493Q714.611 584.664 714.578 584.833Q714.544 585.001 714.494 585.166Q714.444 585.33 714.378 585.489Q714.313 585.648 714.232 585.8Q714.151 585.951 714.055 586.094Q713.959 586.237 713.85 586.37Q713.741 586.503 713.62 586.625Q713.498 586.746 713.365 586.855Q713.232 586.964 713.089 587.06Q712.946 587.155 712.795 587.236Q712.643 587.318 712.484 587.383Q712.325 587.449 712.161 587.499Q711.996 587.549 711.828 587.583Q711.659 587.616 711.488 587.633Q711.317 587.65 711.145 587.65Q710.973 587.65 710.802 587.633Q710.631 587.616 710.462 587.583Q710.293 587.549 710.129 587.499Q709.964 587.449 709.805 587.383Q709.647 587.318 709.495 587.236Q709.343 587.155 709.2 587.06Q709.057 586.964 708.924 586.855Q708.792 586.746 708.67 586.625Q708.548 586.503 708.439 586.37Q708.33 586.237 708.235 586.094Q708.139 585.951 708.058 585.8Q707.977 585.648 707.911 585.489Q707.845 585.33 707.796 585.166Q707.746 585.001 707.712 584.833Q707.679 584.664 707.662 584.493Q707.645 584.322 707.645 584.15L707.645 584.15Q707.645 583.978 707.662 583.807Q707.679 583.636 707.712 583.467Q707.746 583.298 707.796 583.134Q707.845 582.969 707.911 582.81Q707.977 582.651 708.058 582.5Q708.139 582.348 708.235 582.205Q708.33 582.062 708.439 581.929Q708.548 581.796 708.67 581.675Q708.792 581.553 708.924 581.444Q709.057 581.335 709.2 581.24Q709.343 581.144 709.495 581.063Q709.647 580.982 709.805 580.916Q709.964 580.85 710.129 580.8Q710.293 580.751 710.462 580.717Q710.631 580.684 710.802 580.667Q710.973 580.65 711.145 580.65Q711.317 580.65 711.488 580.667Q711.659 580.683 711.828 580.717Q711.996 580.751 712.161 580.8Q712.325 580.85 712.484 580.916Q712.643 580.982 712.795 581.063Q712.946 581.144 713.089 581.24Q713.232 581.335 713.365 581.444Q713.498 581.553 713.62 581.675Q713.741 581.796 713.85 581.929Q713.959 582.062 714.055 582.205Q714.151 582.348 714.232 582.5Q714.313 582.651 714.378 582.81Q714.444 582.969 714.494 583.134Q714.544 583.298 714.578 583.467Q714.611 583.636 714.628 583.807Q714.645 583.978 714.645 584.15ZM701.137 510.654L714.587 583.514Q714.618 583.684 714.632 583.855Q714.647 584.026 714.644 584.198Q714.642 584.37 714.623 584.541Q714.604 584.712 714.568 584.88Q714.532 585.048 714.48 585.212Q714.428 585.376 714.36 585.534Q714.292 585.692 714.208 585.842Q714.125 585.993 714.028 586.134Q713.93 586.276 713.819 586.407Q713.709 586.539 713.585 586.659Q713.462 586.778 713.328 586.886Q713.193 586.993 713.049 587.086Q712.905 587.18 712.752 587.259Q712.599 587.338 712.439 587.401Q712.28 587.465 712.115 587.513Q711.949 587.56 711.78 587.592Q711.611 587.623 711.44 587.637Q711.268 587.652 711.096 587.649Q710.925 587.647 710.754 587.628Q710.583 587.609 710.415 587.573Q710.246 587.537 710.083 587.485Q709.919 587.432 709.761 587.365Q709.603 587.297 709.452 587.213Q709.302 587.13 709.16 587.033Q709.019 586.935 708.887 586.824Q708.756 586.714 708.636 586.59Q708.516 586.467 708.409 586.333Q708.302 586.198 708.208 586.054Q708.115 585.91 708.036 585.757Q707.957 585.604 707.893 585.444Q707.829 585.285 707.782 585.12Q707.734 584.954 707.703 584.785L694.253 511.925Q694.222 511.756 694.207 511.585Q694.193 511.413 694.195 511.241Q694.198 511.07 694.217 510.899Q694.236 510.728 694.272 510.56Q694.308 510.391 694.36 510.228Q694.412 510.064 694.48 509.906Q694.548 509.748 694.631 509.597Q694.714 509.447 694.812 509.305Q694.909 509.164 695.02 509.032Q695.131 508.901 695.254 508.781Q695.378 508.661 695.512 508.554Q695.646 508.447 695.791 508.353Q695.935 508.26 696.088 508.181Q696.24 508.102 696.4 508.038Q696.56 507.974 696.725 507.927Q696.89 507.879 697.059 507.848Q697.229 507.817 697.4 507.802Q697.571 507.788 697.743 507.79Q697.915 507.792 698.086 507.812Q698.257 507.831 698.425 507.867Q698.593 507.903 698.757 507.955Q698.921 508.007 699.079 508.075Q699.237 508.143 699.387 508.226Q699.538 508.309 699.679 508.407Q699.821 508.504 699.952 508.615Q700.084 508.726 700.203 508.849Q700.323 508.973 700.431 509.107Q700.538 509.241 700.631 509.386Q700.725 509.53 700.804 509.683Q700.883 509.835 700.946 509.995Q701.01 510.155 701.058 510.32Q701.105 510.485 701.137 510.654Z"></path><path  id="路径 29" style="fill:#99ADF9; opacity:1;" d="M741.405 584.15L741.405 584.15Q741.405 584.322 741.388 584.493Q741.371 584.664 741.338 584.833Q741.304 585.001 741.254 585.166Q741.204 585.33 741.138 585.489Q741.073 585.648 740.992 585.8Q740.911 585.951 740.815 586.094Q740.719 586.237 740.61 586.37Q740.501 586.503 740.38 586.625Q740.258 586.746 740.125 586.855Q739.992 586.964 739.849 587.06Q739.706 587.155 739.555 587.236Q739.403 587.318 739.244 587.383Q739.085 587.449 738.921 587.499Q738.756 587.549 738.588 587.583Q738.419 587.616 738.248 587.633Q738.077 587.65 737.905 587.65Q737.733 587.65 737.562 587.633Q737.391 587.616 737.222 587.583Q737.053 587.549 736.889 587.499Q736.724 587.449 736.565 587.383Q736.407 587.318 736.255 587.236Q736.103 587.155 735.96 587.06Q735.817 586.964 735.684 586.855Q735.552 586.746 735.43 586.625Q735.308 586.503 735.199 586.37Q735.09 586.237 734.995 586.094Q734.899 585.951 734.818 585.8Q734.737 585.648 734.671 585.489Q734.605 585.33 734.556 585.166Q734.506 585.001 734.472 584.833Q734.439 584.664 734.422 584.493Q734.405 584.322 734.405 584.15L734.405 584.15Q734.405 583.978 734.422 583.807Q734.439 583.636 734.472 583.467Q734.506 583.298 734.556 583.134Q734.605 582.969 734.671 582.81Q734.737 582.651 734.818 582.5Q734.899 582.348 734.995 582.205Q735.09 582.062 735.199 581.929Q735.308 581.796 735.43 581.675Q735.552 581.553 735.685 581.444Q735.817 581.335 735.96 581.24Q736.103 581.144 736.255 581.063Q736.407 580.982 736.565 580.916Q736.724 580.85 736.889 580.8Q737.053 580.751 737.222 580.717Q737.391 580.684 737.562 580.667Q737.733 580.65 737.905 580.65Q738.077 580.65 738.248 580.667Q738.419 580.683 738.588 580.717Q738.756 580.751 738.921 580.8Q739.085 580.85 739.244 580.916Q739.403 580.982 739.555 581.063Q739.706 581.144 739.849 581.24Q739.992 581.335 740.125 581.444Q740.258 581.553 740.38 581.675Q740.501 581.796 740.61 581.929Q740.719 582.062 740.815 582.205Q740.911 582.348 740.992 582.5Q741.073 582.651 741.138 582.81Q741.204 582.969 741.254 583.134Q741.304 583.298 741.338 583.467Q741.371 583.636 741.388 583.807Q741.405 583.978 741.405 584.15ZM727.897 510.654L741.347 583.514Q741.378 583.684 741.392 583.855Q741.407 584.026 741.404 584.198Q741.402 584.37 741.383 584.541Q741.364 584.712 741.328 584.88Q741.292 585.048 741.24 585.212Q741.188 585.376 741.12 585.534Q741.052 585.692 740.969 585.842Q740.885 585.993 740.788 586.134Q740.69 586.276 740.579 586.407Q740.469 586.539 740.345 586.659Q740.222 586.778 740.088 586.886Q739.953 586.993 739.809 587.086Q739.665 587.18 739.512 587.259Q739.359 587.338 739.199 587.401Q739.04 587.465 738.875 587.513Q738.709 587.56 738.54 587.592Q738.371 587.623 738.2 587.637Q738.028 587.652 737.856 587.649Q737.685 587.647 737.514 587.628Q737.343 587.609 737.175 587.573Q737.006 587.537 736.843 587.485Q736.679 587.432 736.521 587.365Q736.363 587.297 736.212 587.213Q736.062 587.13 735.92 587.033Q735.779 586.935 735.647 586.824Q735.516 586.714 735.396 586.59Q735.276 586.467 735.169 586.333Q735.062 586.198 734.968 586.054Q734.875 585.91 734.796 585.757Q734.717 585.604 734.653 585.444Q734.589 585.285 734.542 585.12Q734.494 584.954 734.463 584.785L721.013 511.925Q720.982 511.756 720.967 511.585Q720.953 511.413 720.955 511.241Q720.958 511.07 720.977 510.899Q720.996 510.728 721.032 510.56Q721.068 510.391 721.12 510.228Q721.172 510.064 721.24 509.906Q721.308 509.748 721.391 509.597Q721.474 509.447 721.572 509.305Q721.669 509.164 721.78 509.032Q721.891 508.901 722.014 508.781Q722.138 508.661 722.272 508.554Q722.406 508.447 722.551 508.353Q722.695 508.26 722.848 508.181Q723 508.102 723.16 508.038Q723.32 507.974 723.485 507.927Q723.65 507.879 723.819 507.848Q723.989 507.817 724.16 507.802Q724.331 507.788 724.503 507.79Q724.675 507.792 724.846 507.812Q725.017 507.831 725.185 507.867Q725.353 507.903 725.517 507.955Q725.681 508.007 725.839 508.075Q725.997 508.143 726.147 508.226Q726.298 508.309 726.439 508.407Q726.581 508.504 726.712 508.615Q726.844 508.726 726.964 508.849Q727.083 508.973 727.191 509.107Q727.298 509.241 727.391 509.386Q727.485 509.53 727.564 509.683Q727.643 509.835 727.707 509.995Q727.77 510.155 727.818 510.32Q727.865 510.485 727.897 510.654Z"></path><path  id="路径 30" style="fill:#99ADF9; opacity:1;" d="M768.175 584.15L768.175 584.15Q768.175 584.322 768.158 584.493Q768.141 584.664 768.108 584.833Q768.074 585.001 768.024 585.166Q767.974 585.33 767.908 585.489Q767.843 585.648 767.762 585.8Q767.681 585.951 767.585 586.094Q767.49 586.237 767.38 586.37Q767.271 586.503 767.15 586.625Q767.028 586.746 766.895 586.855Q766.762 586.964 766.619 587.06Q766.476 587.155 766.325 587.236Q766.173 587.318 766.014 587.383Q765.855 587.449 765.691 587.499Q765.526 587.549 765.358 587.583Q765.189 587.616 765.018 587.633Q764.847 587.65 764.675 587.65Q764.503 587.65 764.332 587.633Q764.161 587.616 763.992 587.583Q763.823 587.549 763.659 587.499Q763.494 587.449 763.335 587.383Q763.177 587.318 763.025 587.236Q762.873 587.155 762.73 587.06Q762.587 586.964 762.455 586.855Q762.322 586.746 762.2 586.625Q762.078 586.503 761.969 586.37Q761.86 586.237 761.765 586.094Q761.669 585.951 761.588 585.8Q761.507 585.648 761.441 585.489Q761.375 585.33 761.326 585.166Q761.276 585.001 761.242 584.833Q761.209 584.664 761.192 584.493Q761.175 584.322 761.175 584.15L761.175 584.15Q761.175 583.978 761.192 583.807Q761.209 583.636 761.242 583.467Q761.276 583.298 761.326 583.134Q761.375 582.969 761.441 582.81Q761.507 582.651 761.588 582.5Q761.669 582.348 761.765 582.205Q761.86 582.062 761.969 581.929Q762.078 581.796 762.2 581.675Q762.322 581.553 762.455 581.444Q762.587 581.335 762.73 581.24Q762.873 581.144 763.025 581.063Q763.177 580.982 763.335 580.916Q763.494 580.85 763.659 580.8Q763.823 580.751 763.992 580.717Q764.161 580.684 764.332 580.667Q764.503 580.65 764.675 580.65Q764.847 580.65 765.018 580.667Q765.189 580.683 765.358 580.717Q765.526 580.751 765.691 580.8Q765.855 580.85 766.014 580.916Q766.173 580.982 766.325 581.063Q766.476 581.144 766.619 581.24Q766.762 581.335 766.895 581.444Q767.028 581.553 767.15 581.675Q767.271 581.796 767.38 581.929Q767.489 582.062 767.585 582.205Q767.68 582.348 767.761 582.5Q767.843 582.651 767.908 582.81Q767.974 582.969 768.024 583.134Q768.074 583.298 768.108 583.467Q768.141 583.636 768.158 583.807Q768.175 583.978 768.175 584.15ZM754.667 510.654L768.117 583.514Q768.148 583.684 768.162 583.855Q768.177 584.026 768.174 584.198Q768.172 584.37 768.153 584.541Q768.134 584.712 768.098 584.88Q768.062 585.048 768.01 585.212Q767.958 585.376 767.89 585.534Q767.822 585.692 767.739 585.842Q767.655 585.993 767.558 586.134Q767.46 586.276 767.35 586.407Q767.239 586.539 767.115 586.659Q766.992 586.778 766.858 586.886Q766.723 586.993 766.579 587.086Q766.435 587.18 766.282 587.259Q766.129 587.338 765.969 587.401Q765.81 587.465 765.645 587.513Q765.479 587.56 765.31 587.592Q765.141 587.623 764.97 587.637Q764.798 587.652 764.626 587.649Q764.455 587.647 764.284 587.628Q764.113 587.609 763.945 587.573Q763.776 587.537 763.613 587.485Q763.449 587.432 763.291 587.365Q763.133 587.297 762.982 587.213Q762.832 587.13 762.69 587.033Q762.549 586.935 762.417 586.824Q762.286 586.714 762.166 586.59Q762.046 586.467 761.939 586.333Q761.832 586.198 761.738 586.054Q761.645 585.91 761.566 585.757Q761.487 585.604 761.423 585.444Q761.359 585.285 761.312 585.12Q761.264 584.954 761.233 584.785L747.783 511.925Q747.752 511.756 747.737 511.585Q747.723 511.413 747.725 511.241Q747.728 511.07 747.747 510.899Q747.766 510.728 747.802 510.56Q747.838 510.391 747.89 510.228Q747.942 510.064 748.01 509.906Q748.078 509.748 748.161 509.597Q748.244 509.447 748.342 509.305Q748.439 509.164 748.55 509.032Q748.661 508.901 748.784 508.781Q748.908 508.661 749.042 508.554Q749.176 508.447 749.321 508.353Q749.465 508.26 749.618 508.181Q749.77 508.102 749.93 508.038Q750.09 507.974 750.255 507.927Q750.42 507.879 750.589 507.848Q750.759 507.817 750.93 507.802Q751.101 507.788 751.273 507.79Q751.445 507.792 751.616 507.812Q751.787 507.831 751.955 507.867Q752.123 507.903 752.287 507.955Q752.451 508.007 752.609 508.075Q752.767 508.143 752.917 508.226Q753.068 508.309 753.209 508.407Q753.351 508.504 753.482 508.615Q753.614 508.726 753.734 508.849Q753.854 508.973 753.961 509.107Q754.068 509.241 754.161 509.386Q754.255 509.53 754.334 509.683Q754.413 509.835 754.477 509.995Q754.54 510.155 754.588 510.32Q754.635 510.485 754.667 510.654Z"></path><path  id="路径 31" style="fill:#99ADF9; opacity:1;" d="M517.005 573.99L517.005 573.99Q517.005 574.162 516.988 574.333Q516.971 574.504 516.938 574.672Q516.904 574.841 516.854 575.006Q516.804 575.17 516.738 575.329Q516.672 575.488 516.591 575.64Q516.51 575.791 516.415 575.934Q516.319 576.077 516.21 576.21Q516.101 576.343 515.98 576.465Q515.858 576.586 515.725 576.695Q515.592 576.804 515.449 576.9Q515.306 576.995 515.155 577.076Q515.003 577.157 514.844 577.223Q514.685 577.289 514.521 577.339Q514.356 577.389 514.188 577.422Q514.019 577.456 513.848 577.473Q513.677 577.49 513.505 577.49Q513.333 577.49 513.162 577.473Q512.991 577.456 512.822 577.422Q512.653 577.389 512.489 577.339Q512.324 577.289 512.165 577.223Q512.007 577.157 511.855 577.076Q511.703 576.995 511.56 576.9Q511.417 576.804 511.284 576.695Q511.152 576.586 511.03 576.465Q510.908 576.343 510.799 576.21Q510.69 576.077 510.595 575.934Q510.499 575.791 510.418 575.64Q510.337 575.488 510.271 575.329Q510.205 575.17 510.155 575.006Q510.106 574.841 510.072 574.672Q510.039 574.504 510.022 574.333Q510.005 574.162 510.005 573.99L510.005 573.99Q510.005 573.818 510.022 573.647Q510.039 573.475 510.072 573.307Q510.106 573.138 510.155 572.974Q510.205 572.809 510.271 572.65Q510.337 572.491 510.418 572.34Q510.499 572.188 510.595 572.045Q510.69 571.902 510.799 571.769Q510.908 571.636 511.03 571.515Q511.152 571.393 511.284 571.284Q511.417 571.175 511.56 571.079Q511.703 570.984 511.855 570.903Q512.007 570.822 512.165 570.756Q512.324 570.69 512.489 570.64Q512.653 570.59 512.822 570.557Q512.991 570.523 513.162 570.507Q513.333 570.49 513.505 570.49Q513.677 570.49 513.848 570.507Q514.019 570.523 514.188 570.557Q514.356 570.591 514.521 570.64Q514.685 570.69 514.844 570.756Q515.003 570.822 515.155 570.903Q515.306 570.984 515.449 571.079Q515.592 571.175 515.725 571.284Q515.858 571.393 515.98 571.515Q516.101 571.636 516.21 571.769Q516.319 571.902 516.415 572.045Q516.51 572.188 516.592 572.34Q516.673 572.491 516.738 572.65Q516.804 572.809 516.854 572.974Q516.904 573.138 516.938 573.307Q516.971 573.475 516.988 573.647Q517.005 573.818 517.005 573.99ZM446.717 541.73L514.877 570.77Q515.035 570.837 515.186 570.92Q515.337 571.002 515.479 571.099Q515.621 571.196 515.752 571.307Q515.884 571.417 516.004 571.54Q516.125 571.663 516.233 571.797Q516.34 571.931 516.434 572.075Q516.528 572.219 516.608 572.371Q516.688 572.523 516.752 572.683Q516.816 572.842 516.864 573.007Q516.912 573.172 516.944 573.341Q516.976 573.51 516.991 573.682Q517.006 573.853 517.005 574.025Q517.003 574.197 516.984 574.368Q516.966 574.539 516.93 574.707Q516.895 574.875 516.844 575.039Q516.792 575.203 516.725 575.362Q516.657 575.52 516.575 575.671Q516.492 575.821 516.395 575.963Q516.298 576.105 516.188 576.237Q516.077 576.369 515.955 576.489Q515.832 576.61 515.698 576.717Q515.564 576.825 515.42 576.919Q515.276 577.013 515.124 577.093Q514.971 577.172 514.812 577.237Q514.652 577.301 514.487 577.349Q514.322 577.397 514.153 577.429Q513.984 577.461 513.813 577.476Q513.641 577.491 513.47 577.49Q513.298 577.488 513.127 577.469Q512.956 577.451 512.787 577.415Q512.619 577.38 512.455 577.329Q512.291 577.277 512.133 577.21L443.973 548.17Q443.815 548.102 443.664 548.02Q443.513 547.937 443.371 547.84Q443.229 547.743 443.097 547.633Q442.966 547.522 442.845 547.399Q442.725 547.277 442.617 547.143Q442.509 547.009 442.415 546.865Q442.321 546.721 442.242 546.568Q442.162 546.416 442.098 546.256Q442.034 546.097 441.985 545.932Q441.937 545.767 441.905 545.598Q441.874 545.429 441.858 545.258Q441.843 545.086 441.845 544.914Q441.847 544.743 441.865 544.572Q441.884 544.401 441.919 544.232Q441.954 544.064 442.006 543.9Q442.057 543.736 442.125 543.578Q442.192 543.42 442.275 543.269Q442.357 543.118 442.454 542.976Q442.551 542.834 442.662 542.702Q442.772 542.57 442.895 542.45Q443.018 542.33 443.152 542.222Q443.286 542.114 443.43 542.02Q443.574 541.926 443.726 541.846Q443.879 541.767 444.038 541.703Q444.198 541.639 444.363 541.59Q444.528 541.542 444.697 541.51Q444.866 541.478 445.037 541.463Q445.208 541.448 445.38 541.45Q445.552 541.452 445.723 541.47Q445.894 541.489 446.062 541.524Q446.23 541.559 446.394 541.611Q446.559 541.662 446.717 541.73Z"></path><path  id="路径 32" style="fill:#99ADF9; opacity:1;" d="M504.125 591.45L504.125 591.45Q504.125 591.622 504.108 591.793Q504.091 591.964 504.057 592.132Q504.024 592.301 503.974 592.466Q503.924 592.63 503.858 592.789Q503.793 592.948 503.712 593.1Q503.63 593.251 503.535 593.394Q503.439 593.537 503.33 593.67Q503.221 593.803 503.1 593.924Q502.978 594.046 502.845 594.155Q502.712 594.264 502.569 594.36Q502.426 594.455 502.275 594.536Q502.123 594.617 501.964 594.683Q501.805 594.749 501.641 594.799Q501.476 594.849 501.308 594.882Q501.139 594.916 500.968 594.933Q500.797 594.95 500.625 594.95Q500.453 594.95 500.282 594.933Q500.111 594.916 499.942 594.882Q499.773 594.849 499.609 594.799Q499.444 594.749 499.285 594.683Q499.127 594.617 498.975 594.536Q498.823 594.455 498.68 594.36Q498.537 594.264 498.404 594.155Q498.272 594.046 498.15 593.924Q498.028 593.803 497.919 593.67Q497.81 593.537 497.715 593.394Q497.619 593.251 497.538 593.099Q497.457 592.948 497.391 592.789Q497.325 592.63 497.276 592.466Q497.226 592.301 497.192 592.132Q497.159 591.964 497.142 591.793Q497.125 591.622 497.125 591.45L497.125 591.45Q497.125 591.278 497.142 591.107Q497.159 590.935 497.192 590.767Q497.226 590.598 497.276 590.434Q497.325 590.269 497.391 590.11Q497.457 589.951 497.538 589.8Q497.619 589.648 497.715 589.505Q497.81 589.362 497.919 589.229Q498.028 589.096 498.15 588.975Q498.272 588.853 498.404 588.744Q498.537 588.635 498.68 588.539Q498.823 588.444 498.975 588.363Q499.127 588.282 499.285 588.216Q499.444 588.15 499.609 588.1Q499.773 588.05 499.942 588.017Q500.111 587.983 500.282 587.967Q500.453 587.95 500.625 587.95Q500.797 587.95 500.968 587.967Q501.139 587.983 501.308 588.017Q501.476 588.05 501.641 588.1Q501.805 588.15 501.964 588.216Q502.123 588.282 502.275 588.363Q502.426 588.444 502.569 588.539Q502.712 588.635 502.845 588.744Q502.978 588.853 503.1 588.975Q503.221 589.096 503.33 589.229Q503.439 589.362 503.535 589.505Q503.63 589.648 503.711 589.8Q503.793 589.951 503.858 590.11Q503.924 590.269 503.974 590.434Q504.024 590.598 504.058 590.767Q504.091 590.935 504.108 591.107Q504.125 591.278 504.125 591.45ZM433.847 559.19L501.997 588.23Q502.155 588.297 502.306 588.38Q502.457 588.462 502.599 588.559Q502.741 588.656 502.872 588.767Q503.004 588.877 503.125 589Q503.245 589.123 503.353 589.257Q503.46 589.391 503.554 589.535Q503.649 589.679 503.728 589.831Q503.808 589.984 503.872 590.143Q503.936 590.303 503.984 590.468Q504.032 590.633 504.064 590.802Q504.096 590.971 504.111 591.142Q504.126 591.313 504.125 591.485Q504.123 591.657 504.104 591.828Q504.086 591.999 504.05 592.167Q504.015 592.336 503.964 592.5Q503.912 592.664 503.845 592.822Q503.777 592.98 503.695 593.131Q503.612 593.281 503.515 593.423Q503.418 593.565 503.308 593.697Q503.197 593.829 503.074 593.949Q502.952 594.07 502.818 594.177Q502.684 594.285 502.54 594.379Q502.396 594.473 502.243 594.553Q502.091 594.632 501.931 594.697Q501.772 594.761 501.607 594.809Q501.442 594.857 501.273 594.889Q501.104 594.921 500.933 594.936Q500.761 594.951 500.589 594.949Q500.417 594.948 500.247 594.929Q500.076 594.911 499.907 594.875Q499.739 594.84 499.575 594.789Q499.411 594.737 499.253 594.67L431.103 565.63Q430.945 565.562 430.794 565.48Q430.643 565.397 430.501 565.3Q430.359 565.203 430.227 565.093Q430.095 564.982 429.975 564.859Q429.855 564.737 429.747 564.603Q429.639 564.469 429.545 564.325Q429.451 564.181 429.372 564.028Q429.292 563.876 429.228 563.716Q429.164 563.557 429.115 563.392Q429.067 563.227 429.035 563.058Q429.004 562.889 428.988 562.717Q428.973 562.546 428.975 562.374Q428.977 562.202 428.995 562.031Q429.014 561.86 429.049 561.692Q429.084 561.524 429.136 561.36Q429.188 561.196 429.255 561.038Q429.322 560.879 429.405 560.729Q429.488 560.578 429.584 560.436Q429.681 560.294 429.792 560.162Q429.902 560.03 430.025 559.91Q430.148 559.789 430.282 559.682Q430.416 559.574 430.56 559.48Q430.704 559.386 430.856 559.306Q431.009 559.227 431.168 559.163Q431.328 559.099 431.493 559.05Q431.658 559.002 431.827 558.97Q431.996 558.938 432.167 558.923Q432.338 558.908 432.51 558.91Q432.682 558.912 432.853 558.93Q433.024 558.949 433.192 558.984Q433.361 559.019 433.525 559.071Q433.689 559.122 433.847 559.19Z"></path><path  id="路径 33" style="fill:#FF8D76; opacity:1;" d="M588.28 414.318M588.28 414.318Q589.562 414.733 591.194 415.643Q594.312 417.382 596.725 419.988Q600.124 423.661 601.604 428.53Q603.382 434.382 602.216 441.507Q602.198 441.616 602.175 441.724Q602.151 441.832 602.123 441.938Q602.095 442.045 602.061 442.15Q602.027 442.255 601.989 442.359Q601.95 442.462 601.906 442.564Q601.862 442.665 601.813 442.764Q601.765 442.863 601.711 442.96Q601.658 443.057 601.599 443.151Q601.541 443.244 601.479 443.335Q601.416 443.426 601.349 443.514Q601.282 443.602 601.21 443.686Q601.139 443.77 601.063 443.851Q600.988 443.932 600.909 444.009Q600.829 444.086 600.747 444.159Q600.664 444.232 600.577 444.301Q600.491 444.369 600.401 444.434Q600.311 444.498 600.219 444.558Q600.126 444.618 600.03 444.674Q599.935 444.729 599.836 444.78Q599.738 444.83 599.638 444.876Q599.537 444.922 599.434 444.962Q599.332 445.003 599.227 445.039Q599.123 445.074 599.016 445.105Q598.91 445.135 598.803 445.161Q598.695 445.186 598.587 445.206Q598.478 445.226 598.368 445.24Q598.259 445.255 598.149 445.264Q598.039 445.273 597.928 445.277Q597.818 445.281 597.707 445.279Q597.597 445.278 597.487 445.271Q597.377 445.263 597.267 445.251Q597.157 445.238 597.048 445.221Q596.939 445.203 596.831 445.18Q596.723 445.156 596.616 445.128Q596.509 445.1 596.404 445.066Q596.299 445.032 596.195 444.993Q596.092 444.955 595.991 444.911Q595.889 444.867 595.79 444.818Q595.691 444.77 595.594 444.716Q595.498 444.663 595.404 444.604Q595.31 444.546 595.219 444.483Q595.128 444.421 595.04 444.354Q594.953 444.286 594.868 444.215Q594.784 444.144 594.703 444.068Q594.622 443.993 594.545 443.914Q594.469 443.834 594.396 443.752Q594.323 443.669 594.254 443.582Q594.185 443.496 594.121 443.406Q594.056 443.316 593.996 443.224Q593.936 443.131 593.881 443.035Q593.825 442.94 593.775 442.841Q593.724 442.743 593.678 442.643Q593.633 442.542 593.592 442.439Q593.551 442.337 593.516 442.232Q593.48 442.128 593.449 442.021Q593.419 441.915 593.394 441.808Q593.369 441.7 593.349 441.591Q593.329 441.483 593.314 441.373Q593.299 441.264 593.29 441.154Q593.281 441.044 593.277 440.933Q593.274 440.823 593.275 440.712Q593.277 440.602 593.284 440.492Q593.291 440.381 593.304 440.272Q593.316 440.162 593.334 440.053Q594.791 431.148 590.12 426.102Q588.679 424.545 586.811 423.504Q586.247 423.19 585.732 422.972Q585.595 422.914 585.491 422.876Q585.472 422.869 585.464 422.866Q585.48 422.872 585.509 422.881Q585.404 422.847 585.301 422.808Q585.197 422.769 585.096 422.725Q584.995 422.68 584.896 422.631Q584.797 422.582 584.7 422.528Q584.604 422.475 584.51 422.416Q584.417 422.358 584.326 422.294Q584.235 422.231 584.148 422.164Q584.06 422.096 583.976 422.025Q583.892 421.953 583.812 421.878Q583.731 421.802 583.654 421.722Q583.578 421.643 583.505 421.56Q583.432 421.476 583.364 421.39Q583.296 421.303 583.231 421.213Q583.167 421.123 583.108 421.03Q583.048 420.937 582.993 420.841Q582.938 420.746 582.888 420.647Q582.837 420.549 582.792 420.448Q582.747 420.347 582.706 420.245Q582.666 420.142 582.63 420.037Q582.595 419.932 582.565 419.826Q582.535 419.72 582.51 419.612Q582.485 419.505 582.466 419.396Q582.446 419.287 582.432 419.178Q582.418 419.068 582.409 418.958Q582.4 418.848 582.397 418.737Q582.393 418.627 582.396 418.517Q582.398 418.406 582.405 418.296Q582.412 418.186 582.425 418.076Q582.438 417.966 582.456 417.857Q582.475 417.748 582.498 417.64Q582.522 417.532 582.551 417.426Q582.579 417.319 582.613 417.214Q582.647 417.109 582.687 417.006Q582.726 416.902 582.77 416.801Q582.814 416.7 582.863 416.601Q582.912 416.502 582.966 416.405Q583.02 416.309 583.078 416.215Q583.137 416.122 583.2 416.031Q583.263 415.94 583.331 415.853Q583.398 415.765 583.47 415.681Q583.541 415.597 583.617 415.517Q583.693 415.436 583.772 415.359Q583.852 415.283 583.935 415.21Q584.018 415.137 584.105 415.069Q584.191 415 584.281 414.936Q584.371 414.872 584.464 414.812Q584.557 414.753 584.653 414.698Q584.749 414.643 584.847 414.592Q584.946 414.542 585.046 414.497Q585.147 414.451 585.25 414.411Q585.353 414.371 585.457 414.335Q585.562 414.3 585.668 414.27Q585.775 414.24 585.882 414.215Q585.99 414.19 586.099 414.171Q586.207 414.151 586.317 414.137Q586.426 414.123 586.536 414.114Q586.647 414.105 586.757 414.102Q586.867 414.098 586.978 414.1Q587.088 414.102 587.199 414.11Q587.309 414.117 587.419 414.13Q587.528 414.143 587.637 414.161Q587.746 414.18 587.854 414.203Q587.962 414.227 588.069 414.256Q588.175 414.284 588.28 414.318Z"></path><path  id="路径 34" style="fill:#FF8D76; opacity:1;" d="M625.216 411.618M625.216 411.618Q626.268 412.197 627.489 413.318Q629.667 415.316 631.24 418.128Q633.344 421.888 634.081 426.649Q634.958 432.308 633.846 439.106Q633.828 439.216 633.805 439.324Q633.781 439.432 633.753 439.538Q633.725 439.645 633.691 439.75Q633.657 439.855 633.619 439.959Q633.58 440.062 633.536 440.164Q633.492 440.265 633.443 440.364Q633.395 440.463 633.341 440.56Q633.288 440.657 633.229 440.751Q633.171 440.844 633.109 440.935Q633.046 441.026 632.979 441.114Q632.911 441.202 632.84 441.286Q632.769 441.37 632.693 441.451Q632.618 441.532 632.539 441.609Q632.459 441.686 632.377 441.759Q632.294 441.832 632.207 441.901Q632.121 441.969 632.031 442.034Q631.941 442.098 631.849 442.158Q631.756 442.218 631.66 442.274Q631.565 442.329 631.466 442.38Q631.368 442.43 631.268 442.476Q631.167 442.522 631.064 442.562Q630.962 442.603 630.857 442.639Q630.753 442.674 630.646 442.705Q630.54 442.735 630.433 442.761Q630.325 442.786 630.217 442.806Q630.108 442.826 629.998 442.84Q629.889 442.855 629.779 442.864Q629.669 442.873 629.558 442.877Q629.448 442.881 629.338 442.879Q629.227 442.878 629.117 442.87Q629.007 442.863 628.897 442.851Q628.787 442.838 628.678 442.821Q628.569 442.803 628.461 442.78Q628.353 442.756 628.246 442.728Q628.14 442.7 628.034 442.666Q627.929 442.632 627.826 442.593Q627.722 442.555 627.621 442.511Q627.519 442.467 627.42 442.418Q627.321 442.37 627.224 442.316Q627.128 442.263 627.034 442.204Q626.94 442.146 626.849 442.083Q626.758 442.021 626.67 441.954Q626.583 441.886 626.498 441.815Q626.414 441.744 626.333 441.668Q626.253 441.593 626.176 441.514Q626.099 441.434 626.026 441.351Q625.953 441.268 625.884 441.182Q625.815 441.096 625.751 441.006Q625.686 440.916 625.626 440.823Q625.566 440.731 625.511 440.635Q625.455 440.539 625.405 440.441Q625.354 440.343 625.308 440.243Q625.263 440.142 625.222 440.039Q625.181 439.937 625.146 439.832Q625.11 439.728 625.079 439.621Q625.049 439.515 625.024 439.408Q624.999 439.3 624.979 439.191Q624.959 439.083 624.944 438.973Q624.93 438.864 624.92 438.754Q624.911 438.644 624.907 438.533Q624.904 438.423 624.905 438.312Q624.907 438.202 624.914 438.092Q624.921 437.981 624.934 437.872Q624.946 437.762 624.964 437.653Q625.845 432.269 625.188 428.028Q624.698 424.868 623.385 422.522Q622.517 420.971 621.404 419.949Q621.105 419.675 620.849 419.495Q620.799 419.46 620.774 419.444Q620.807 419.465 620.874 419.501Q620.777 419.448 620.683 419.39Q620.589 419.332 620.498 419.27Q620.407 419.207 620.319 419.14Q620.231 419.073 620.147 419.002Q620.062 418.931 619.981 418.856Q619.9 418.781 619.823 418.701Q619.746 418.622 619.673 418.54Q619.6 418.457 619.531 418.371Q619.462 418.284 619.397 418.195Q619.332 418.105 619.272 418.013Q619.212 417.92 619.156 417.824Q619.101 417.729 619.05 417.631Q618.999 417.533 618.953 417.432Q618.907 417.332 618.866 417.229Q618.825 417.127 618.789 417.022Q618.753 416.918 618.723 416.812Q618.692 416.706 618.666 416.598Q618.641 416.491 618.621 416.382Q618.6 416.273 618.586 416.164Q618.571 416.055 618.561 415.944Q618.552 415.834 618.548 415.724Q618.544 415.614 618.545 415.503Q618.547 415.393 618.553 415.282Q618.56 415.172 618.572 415.062Q618.585 414.953 618.602 414.844Q618.62 414.734 618.643 414.626Q618.666 414.518 618.694 414.412Q618.722 414.305 618.755 414.199Q618.789 414.094 618.827 413.991Q618.866 413.887 618.909 413.786Q618.953 413.684 619.001 413.585Q619.05 413.486 619.103 413.389Q619.156 413.292 619.214 413.198Q619.272 413.104 619.335 413.013Q619.397 412.922 619.464 412.834Q619.531 412.746 619.602 412.661Q619.673 412.577 619.749 412.496Q619.824 412.415 619.903 412.338Q619.982 412.261 620.065 412.188Q620.148 412.115 620.234 412.046Q620.32 411.977 620.41 411.912Q620.499 411.847 620.592 411.787Q620.684 411.727 620.78 411.671Q620.875 411.616 620.973 411.565Q621.071 411.514 621.172 411.468Q621.272 411.422 621.375 411.381Q621.478 411.34 621.582 411.304Q621.687 411.268 621.793 411.237Q621.899 411.207 622.006 411.181Q622.114 411.156 622.222 411.135Q622.331 411.115 622.44 411.1Q622.55 411.086 622.66 411.076Q622.77 411.067 622.88 411.063Q622.991 411.059 623.101 411.06Q623.212 411.061 623.322 411.068Q623.432 411.075 623.542 411.087Q623.652 411.099 623.761 411.117Q623.87 411.135 623.978 411.157Q624.086 411.18 624.193 411.209Q624.3 411.237 624.405 411.27Q624.51 411.304 624.614 411.342Q624.717 411.381 624.819 411.424Q624.92 411.468 625.02 411.516Q625.119 411.565 625.216 411.618Z"></path></g></svg>