<svg xmlns="http://www.w3.org/2000/svg" xmlns:xlink="http://www.w3.org/1999/xlink" width="759.8821411132812" height="619.124267578125" viewBox="0 0 759.8821411132812 619.124267578125" fill="none"><g opacity="1"  transform="translate(0 0)  rotate(0)"><mask id="bg-mask-0" fill="white"><use transform="translate(0 0)  rotate(0)" xlink:href="#path_0"></use></mask><g mask="url(#bg-mask-0)" ><path id="floor" fill-rule="evenodd" style="fill:#E1ECFF" opacity="1" d="M453.06 509.58ZM513.72 492.12C526.32 492.12 536.4 478.8 536.4 462.6C536.4 446.22 526.32 433.08 513.72 433.08L494.46 433.08C498.24 427.86 500.58 420.66 500.58 412.92C500.58 396.54 490.5 383.4 477.9 383.4L22.68 383.4C10.08 383.4 0 396.72 0 412.92C0 429.3 10.08 442.44 22.68 442.44L35.64 442.44C37.62 442.44 39.42 442.98 40.86 443.88C37.62 448.92 35.64 455.58 35.64 462.6C35.64 478.98 45.72 492.12 58.32 492.12L71.28 492.12C78.48 492.12 84.24 499.86 84.24 509.4L84.24 509.58C84.24 525.96 94.32 539.1 106.92 539.1L430.38 539.1C442.98 539.1 453.06 525.78 453.06 509.58L453.06 509.4C453.06 500.04 458.82 492.12 466.02 492.12L513.72 492.12Z"></path><g opacity="1"  transform="translate(24.69390869140625 180.18017578125)  rotate(0)"><path id="XMLID_197_" fill-rule="evenodd" style="fill:#FC7EC1" opacity="1" d="M213.806 0L210.386 168.84L424.946 269.28C430.526 271.98 437.006 268.2 437.726 262.08L456.266 92.16L213.806 0Z"></path><path id="XMLID_195_" fill-rule="evenodd" style="fill:#F969BB" opacity="1" d="M210.386 168.84L213.806 0L51.2661 69.12L60.9861 219.6C61.5261 226.08 68.0061 230.04 73.9461 227.52L210.386 168.84Z"></path><path id="XMLID_194_" fill-rule="evenodd" style="fill:#FF97C9" opacity="1" d="M164.31 0C154.95 0 145.77 1.98 137.31 5.76L2.13 65.52C-1.47 67.14 -0.21 72.54 3.75 72.18L51.09 69.12L213.81 0L164.31 0Z"></path><path id="XMLID_193_" fill-rule="evenodd" style="fill:#FF97C9" opacity="1" d="M456.266 92.16L482.366 92.16C485.426 92.16 486.146 87.84 483.266 86.76L255.926 2.7C251.246 0.9 246.206 0 241.166 0L213.806 0L456.266 92.16Z"></path></g><g opacity="1"  transform="translate(206.98712158203125 230.39306640625)  rotate(0)"><path id="XMLID_175_" fill-rule="evenodd" style="fill:#FF8D76" opacity="1" d="M31.6901 90.7246C27.0101 81.5446 24.8501 71.4646 23.9501 61.2046C21.2501 30.2446 31.3301 -0.535439 23.5901 0.184561C16.2101 0.904561 -0.349946 33.8446 0.190054 71.4646C0.370054 86.4046 3.07005 102.065 10.2701 116.825C38.5301 175.325 72.0101 209.345 72.0101 209.345L89.8301 158.405C89.8301 158.405 55.8101 138.065 31.6901 90.7246Z"></path><path id="XMLID_169_" fill-rule="evenodd" style="fill:#FFD3B3" opacity="1" d="M23.41 0.01C16.03 0.73 -0.53 33.67 0.01 71.29C8.65 69.67 18.19 64.63 23.77 61.21C21.25 30.25 31.15 -0.53 23.41 0.01Z"></path></g><g opacity="1"  transform="translate(234.66143798828125 248.383544921875)  rotate(0)"><path id="XMLID_185_" fill-rule="evenodd" style="fill:#FEA691" opacity="1" d="M179.52 155.72C180.6 128.72 180.78 93.62 177 65.36C174.66 48.26 168.18 35.48 159.36 25.94C140.28 5.06 110.22 -0.34 88.8 0.02C67.56 0.38 40.56 7.76 22.56 28.28C17.34 34.4 12.84 41.42 9.6 49.7C-3.54 82.82 -0.66 131.78 3.48 164.54C7.8 198.38 36.06 225.38 71.88 229.16C77.82 229.88 84.12 230.06 91.14 230.06C98.34 230.06 105 229.52 111.3 228.62C149.46 223.22 178.08 192.26 179.52 155.72Z"></path><path id="XMLID_184_" fill-rule="evenodd" style="fill:#FFD3B3" opacity="1" d="M150.175 144.554C152.515 107.474 157.915 47.5337 91.1349 46.0937C24.355 44.6537 31.375 111.974 30.835 137.174C30.295 162.374 45.775 194.954 88.435 195.674C122.995 196.214 147.835 181.634 150.175 144.554Z"></path><path id="XMLID_181_" fill-rule="evenodd" style="fill:#FF8D76" opacity="1" d="M88.6185 0.380576C67.3785 0.740576 40.3785 8.12058 22.3785 28.6406C40.0185 36.5606 63.0585 41.4206 88.2585 41.4206C115.799 41.4206 140.819 35.4806 159.179 26.1206C140.099 5.24058 110.039 -0.159424 88.6185 0.380576Z"></path></g><g opacity="1"  transform="translate(41.41998291015625 242.60009765625)  rotate(0)"><path id="XMLID_25_" fill-rule="evenodd" style="fill:#FF97C9" opacity="1" d="M41.62 150.12C42.16 158.58 47.02 166.14 54.58 170.1L264.46 281.16L267.7 100.08L31.9 0L41.62 150.12Z"></path><path id="XMLID_30_" fill-rule="evenodd" style="fill:#FC7EC1" opacity="1" d="M210.1 178.74C219.1 183.06 229.72 180.36 235.48 172.26L267.52 126.54L267.52 100.08L31.72 0L38.02 94.86L210.1 178.74Z"></path><path id="XMLID_28_" fill-rule="evenodd" style="fill:#FF97C9" opacity="1" d="M212.26 163.08C218.2 165.96 225.22 163.98 229 158.4L267.88 100.08L32.08 0L2.2 47.52C-2.3 54.36 0.4 63.18 7.6 66.6L212.26 163.08Z"></path><path id="XMLID_26_" fill-rule="evenodd" style="fill:#FC7EC1" opacity="1" d="M418.72 189.9L436.9 23.04L267.7 100.08L264.46 281.16L402.7 212.76C411.52 208.26 417.64 199.8 418.72 189.9Z"></path><path id="XMLID_31_" fill-rule="evenodd" style="fill:#F969BB" opacity="1" d="M286.78 167.94C291.46 178.02 303.52 182.16 313.42 177.3L426.46 120.24L437.08 23.22L267.88 100.26L267.88 126.54L267.7 126.54L286.78 167.94Z"></path><path id="XMLID_27_" fill-rule="evenodd" style="fill:#FF97C9" opacity="1" d="M313.96 162.36L463.54 88.92C468.76 86.4 470.74 79.74 467.68 74.7L436.9 23.04L267.7 100.08L300.64 158.4C303.34 162.9 309.1 164.7 313.96 162.36Z"></path></g><g opacity="1"  transform="translate(379.44000244140625 150.034912109375)  rotate(0)"><path id="XMLID_147_" fill-rule="evenodd" style="fill:#FEA691" opacity="1" d="M128.34 2.25C128.34 2.25 126.9 0.81 124.38 0.27C122.58 -0.09 120.06 -0.27 117.18 0.99C110.34 3.87 100.8 27.09 73.62 50.67C46.44 74.25 0 87.93 0 87.93L2.88 163.89C2.88 163.89 54 139.23 91.8 106.83C132.3 72.09 140.4 30.87 140.76 23.67C140.94 22.23 140.76 20.97 140.22 19.71C139.68 15.21 137.52 13.05 137.52 13.05C137.52 13.05 138.06 6.75 136.08 4.59C133.2 1.35 130.14 1.71 128.88 2.07C128.52 2.25 128.34 2.25 128.34 2.25Z"></path><path id="XMLID_146_" fill-rule="evenodd" style="fill:#FFD3B3" opacity="1" d="M120.426 29.3456C114.354 25.7434 105.817 28.9226 101.353 36.448C96.8885 43.9734 98.1905 52.9895 104.262 56.5917C110.334 60.1939 118.871 57.0147 123.336 49.4893C127.8 41.964 126.498 32.9478 120.426 29.3456Z"></path><path id="XMLID_141_" fill-rule="evenodd" style="fill:#FF8D76" opacity="1" d="M128.516 2.42507C128.516 2.42507 127.076 0.985068 124.556 0.445068C123.836 2.78507 122.036 8.72507 120.056 12.8651C117.356 18.0851 117.716 21.8651 120.416 20.7851C121.496 20.4251 123.656 17.3651 126.536 10.5251C128.156 6.56507 128.876 3.86507 129.236 2.24507C128.876 2.24507 128.516 2.42507 128.516 2.42507Z"></path><path id="XMLID_140_" fill-rule="evenodd" style="fill:#FF8D76" opacity="1" d="M138.063 13.2251C138.063 13.2251 136.083 19.1651 133.203 24.3851C130.503 29.6051 130.683 33.2051 133.383 32.3051C134.463 31.9451 136.803 29.0651 139.863 22.2251C140.223 21.3251 140.403 20.6051 140.763 19.8851C140.043 15.3851 138.063 13.2251 138.063 13.2251Z"></path><path id="XMLID_139_" fill-rule="evenodd" style="fill:#FF8D76" opacity="1" d="M140.942 33.5655C141.122 32.3055 140.042 31.0455 138.782 30.8655C137.522 30.6855 136.262 31.7655 136.082 33.0255C136.082 33.3855 130.322 71.5455 84.0615 109.525C47.5215 139.585 4.50151 158.305 4.14151 158.485C2.88151 159.025 2.34151 160.465 2.88151 161.725C3.24151 162.625 4.14151 163.165 5.04151 163.165C5.40151 163.165 5.76151 162.985 6.12151 162.805C6.66151 162.625 50.0415 143.545 87.1215 113.125C135.002 73.7055 140.762 35.1855 140.942 33.5655Z"></path></g><g opacity="1"  transform="translate(237.05999755859375 50.83251953125)  rotate(0)"><path id="XMLID_148_" fill-rule="evenodd" style="fill:#FEA691" opacity="1" d="M160.38 84.53C160.38 84.53 159.3 66.71 154.8 45.29C150.48 23.87 145.08 -1.87 134.64 0.11C124.02 2.09 106.02 42.95 106.02 42.95L160.38 84.53Z"></path><path id="XMLID_154_" fill-rule="evenodd" style="fill:#FFD3B3" opacity="1" d="M151.02 69.9513C151.02 69.9513 150.12 58.4313 147.24 44.3913C144.36 30.5313 140.94 13.6113 134.1 14.8713C127.26 16.1313 115.38 42.7713 115.38 42.7713L151.02 69.9513Z"></path><path id="XMLID_158_" fill-rule="evenodd" style="fill:#FEA691" opacity="1" d="M39.24 0.11C28.8 -1.87 23.4 23.87 19.08 45.29C14.76 66.71 13.5 84.53 13.5 84.53L67.86 42.95C67.86 42.95 49.86 2.09 39.24 0.11Z"></path><path id="XMLID_157_" fill-rule="evenodd" style="fill:#FFD3B3" opacity="1" d="M39.78 14.8713C32.94 13.6113 29.52 30.5313 26.64 44.3913C23.76 58.4313 22.86 69.9513 22.86 69.9513L58.5 42.7713C58.5 42.7713 46.62 16.1313 39.78 14.8713Z"></path><path id="XMLID_156_" fill-rule="evenodd" style="fill:#FEA691" opacity="1" d="M118.445 154.004L165.605 155.264C165.605 155.264 165.605 139.064 163.625 117.644C161.645 96.2241 164.885 70.3041 133.385 42.4041C123.665 33.7641 111.245 28.9041 98.2846 27.2841C88.3846 26.0241 78.1245 26.7441 68.4046 29.0841C49.1446 33.5841 31.6846 44.5641 22.3246 60.2241C4.50455 89.7441 6.48455 151.124 6.48455 151.124L50.2246 152.204L118.445 154.004Z"></path><path id="XMLID_152_" fill-rule="evenodd" style="fill:#FFD3B3" opacity="1" d="M103.68 95.6841C99.36 67.2441 98.28 41.8641 98.1 27.2841C88.2 26.0241 77.94 26.7441 68.22 29.0841C68.04 44.7441 67.32 72.8241 63.72 98.0241C60.12 123.944 53.82 143.024 50.22 152.204L118.44 154.004C115.2 146.084 108.54 127.364 103.68 95.6841Z"></path><path id="XMLID_82_" fill-rule="evenodd" style="fill:#FFD3B3" opacity="1" d="M86.04 119.268C38.52 119.268 0 136.188 0 173.088C0 202.788 38.52 226.908 86.04 226.908C133.56 226.908 172.08 202.788 172.08 173.088C172.08 137.988 133.56 119.268 86.04 119.268Z"></path><path id="XMLID_122_" fill-rule="evenodd" style="fill:#413F4C" opacity="1" d="M88.3806 161.39C100.801 161.39 113.581 145.73 108.721 138.53C103.861 131.15 69.1206 133.49 64.4406 140.15C58.1406 148.97 75.9606 161.39 88.3806 161.39Z"></path><path id="XMLID_160_" fill-rule="evenodd" style="fill:#FF8D76" opacity="1" d="M61.9181 31.7858C61.7381 30.3458 60.2981 29.6258 59.0381 29.9858C58.8581 29.9858 52.5581 31.6058 40.3181 39.7058C30.0581 46.3658 24.1181 54.1058 23.9381 54.4658C23.2181 55.5458 23.3981 57.1658 24.4781 57.8857C24.8381 58.2458 25.3781 58.4258 25.9181 58.4258C26.6381 58.4258 27.3581 58.0658 27.5381 57.5257C27.5381 57.5257 33.2981 50.1458 42.8381 43.8458C54.1781 36.2858 60.1181 34.6658 60.1181 34.6658C61.5581 34.4858 62.2781 33.0458 61.9181 31.7858Z"></path><path id="XMLID_162_" fill-rule="evenodd" style="fill:#FF8D76" opacity="1" d="M127.798 43.8458C137.338 50.1458 143.098 57.5257 143.098 57.5257C143.278 58.0658 143.998 58.4258 144.718 58.4258C145.258 58.4258 145.798 58.2458 146.158 57.8857C147.238 57.1658 147.418 55.5458 146.698 54.4658C146.518 54.1058 140.578 46.3658 130.318 39.7058C118.078 31.6058 111.778 29.9858 111.598 29.9858C110.338 29.6258 108.898 30.3458 108.718 31.7858C108.358 33.0458 109.078 34.4858 110.518 34.6658C110.518 34.6658 116.458 36.2858 127.798 43.8458Z"></path></g><g opacity="1"  transform="translate(286.96710205078125 223.2001953125)  rotate(0)"><path id="u" fill-rule="evenodd" style="fill:#FF6EA9" opacity="1" d="M41.713 34.7401C61.333 33.1201 58.993 11.5201 58.993 11.5201C58.993 11.5201 47.473 14.0401 39.553 3.06006C32.893 13.8601 19.033 15.3001 19.033 15.3001C19.033 15.3001 21.013 36.5401 41.713 34.7401Z"></path><path id="o" fill-rule="evenodd" style="fill:#EA4E95" opacity="1" d="M42.4329 25.2C42.6129 17.82 42.0729 5.04005 42.0729 4.50005C42.0729 2.88005 40.6329 1.80005 39.1929 1.80005C37.5729 1.80005 36.4929 3.06005 36.4929 4.68005C36.4929 4.86005 37.0329 17.64 36.8529 24.84C36.6729 26.28 37.9329 27.54 39.3729 27.72C40.9929 27.72 42.2529 26.46 42.4329 25.2Z"></path><path id="m" fill-rule="evenodd" style="fill:#413F4C" opacity="1" d="M37.03 1.26C24.07 18.54 5.35 9.54 4.63 9.18C3.01 8.46 1.03 9 0.31 10.62C-0.41 12.24 0.13 14.22 1.75 14.94C1.93 15.12 8.41 18.18 16.87 18.18C23.89 18.18 32.17 16.02 39.55 8.28C49.09 18 64.03 16.02 71.23 13.32C72.85 12.6 73.57 10.8 73.03 9.18C72.31 7.56 70.51 6.84 68.89 7.38C68.17 7.56 50.71 13.86 42.07 1.44C41.53 0.54 40.63 0 39.55 0C38.65 0 37.57 0.36 37.03 1.26Z"></path></g><g opacity="1"  transform="translate(264.82562255859375 124.724609375)  rotate(0)"><path id="eye" fill-rule="evenodd" style="fill:#413F4C" opacity="1" d="M96.0744 23.2354C91.7044 23.2354 88.1544 27.4254 88.1544 32.5954C88.1544 37.7654 91.7044 41.9554 96.0744 41.9554C100.444 41.9554 103.994 37.7654 103.994 32.5954C103.994 27.4254 100.444 23.2354 96.0744 23.2354Z"></path><path id="eye" fill-rule="evenodd" style="fill:#413F4C" opacity="1" d="M16.1544 23.2354C11.7844 23.2354 8.23438 27.4254 8.23438 32.5954C8.23438 37.7654 11.7844 41.9554 16.1544 41.9554C20.5244 41.9554 24.0744 37.7654 24.0744 32.5954C24.0744 27.4254 20.5244 23.2354 16.1544 23.2354Z"></path><path id="眉毛" fill-rule="evenodd" style="fill:#FFD3B3" opacity="1" d="M109.035 10.4571C110.475 7.93712 105.435 3.79712 99.1348 1.63712C92.8348 -0.522881 84.1948 -1.06288 82.7548 3.79712C79.8748 13.1571 107.595 13.1571 109.035 10.4571Z"></path><path id="眉毛" fill-rule="evenodd" style="fill:#FFD3B3" opacity="1" d="M9.85 1.82C3.55 4.16 -1.31 8.3 0.31 10.82C1.93 13.34 29.65 12.8 26.41 3.62C24.79 -1.24 16.15 -0.52 9.85 1.82Z"></path></g><g opacity="1"  transform="translate(489.62213134765625 443.751220703125)  rotate(0)"><path id="XMLID_90_" fill-rule="evenodd" style="fill:#BBCBFF" opacity="1" d="M129.4 85.09L171.88 70.33L263.86 38.47C269.98 36.31 271.96 29.29 268.36 24.25C267.82 23.53 267.28 22.81 266.56 22.27L246.22 4.63C241.18 0.13 234.16 -1.13 227.68 1.03L8.44 77.35C6.64 77.89 5.02 78.97 3.76 80.23C-1.1 85.09 -1.46 93.55 3.94 98.77L13.48 107.95C21.76 115.69 33.64 118.39 44.26 114.61L119.14 88.69L129.4 85.09Z"></path><path id="XMLID_89_" fill-rule="evenodd" style="fill:#BBCBFF" opacity="1" d="M219.578 117.309C218.858 115.689 217.778 114.069 216.338 112.809L171.878 70.3289L149.738 49.0889L114.638 58.2689C104.558 60.7889 101.678 73.7489 109.598 80.4089L111.038 81.6689L119.138 88.5089L144.158 109.929C146.318 111.909 146.138 114.969 143.978 116.589C143.618 116.949 143.258 117.129 142.718 117.309L74.4985 137.829C71.6185 138.729 69.2785 140.529 67.6585 142.869C64.2385 147.909 64.5985 155.289 69.8185 159.789L79.3585 168.249C86.9185 174.909 97.3585 177.069 106.898 174.009L209.858 141.069C220.118 137.829 224.258 126.129 219.578 117.309Z"></path><path id="XMLID_80_" fill-rule="evenodd" style="fill:#99ADF9" opacity="1" d="M13.6601 107.769C21.9401 115.509 33.8201 118.209 44.4401 114.429L119.32 88.5089L144.34 109.929C146.5 111.909 146.32 114.969 144.16 116.589C149.92 115.149 158.74 109.749 155.32 106.149C154.06 104.709 121.12 76.6289 121.12 76.6289C121.12 76.6289 45.7001 103.449 35.4401 103.089C24.8201 102.729 8.62005 86.8889 3.94005 80.0489C-0.919946 84.9089 -1.27995 93.3689 4.12005 98.5889L13.6601 107.769Z"></path><path id="XMLID_78_" fill-rule="evenodd" style="fill:#99ADF9" opacity="1" d="M268.718 24.2488C267.278 24.6088 265.838 24.9688 264.218 25.3288C252.518 28.5688 162.158 61.3288 162.158 61.3288L171.878 70.3288L263.858 38.4688C269.978 36.3088 271.958 29.2888 268.718 24.2488Z"></path><path id="XMLID_76_" fill-rule="evenodd" style="fill:#99ADF9" opacity="1" d="M219.758 117.489C211.838 121.809 172.238 137.829 148.118 146.469C123.998 155.109 101.858 162.309 96.4585 161.049C92.3185 159.969 75.7585 148.449 67.6585 142.869C64.2385 147.909 64.5985 155.289 69.8185 159.789L79.3585 168.249C86.9185 174.909 97.3585 177.069 106.898 174.009L209.858 141.069C220.118 137.829 224.258 126.129 219.758 117.489Z"></path></g><g opacity="1"  transform="translate(507.03277587890625 294.06982421875)  rotate(0)"><path id="XMLID_183_" fill-rule="evenodd" style="fill:#BBCBFF" opacity="1" d="M177.15 6.89C123.87 -19.03 66.09 33.89 31.71 70.97C14.43 89.69 3.44999 106.61 0.929985 121.37C-1.59001 135.95 4.16999 148.19 20.55 157.19C83.55 192.11 138.45 146.39 172.47 109.31C195.15 83.93 213.87 57.65 206.67 35.33C203.25 24.71 194.25 15.17 177.15 6.89ZM162.027 40.9122C160.947 38.3922 158.247 36.4122 153.927 34.7922C136.647 28.3122 117.027 43.4322 83.3674 71.6922C55.1074 95.2722 43.0474 110.752 46.6474 119.032C47.3674 120.652 48.6274 121.912 50.4274 122.992C72.5674 135.772 100.287 111.292 131.787 83.0322C155.547 61.6122 165.807 48.6522 162.027 40.9122Z"></path><path id="XMLID_187_" fill-rule="evenodd" style="fill:#99ADF9" opacity="1" d="M206.49 35.3301C198.75 53.3301 187.05 78.7101 152.49 112.37C113.07 150.53 74.91 160.25 37.65 149.99C16.05 144.05 5.61 131.09 0.57 121.19C-1.95 135.77 3.81 148.01 20.19 157.01C83.19 192.11 138.09 146.39 172.11 109.13C195.15 83.9301 213.87 57.6501 206.49 35.3301Z"></path><path id="XMLID_182_" fill-rule="evenodd" style="fill:#99ADF9" opacity="1" d="M161.849 37.6697C160.229 30.6497 148.349 21.8297 131.429 25.2497C114.329 28.8497 86.4293 51.7097 66.9893 69.7097C47.5493 87.7097 40.8893 98.1497 42.1493 108.95C42.8693 114.71 44.8493 117.41 46.6493 118.85C43.0493 110.57 55.1093 95.2697 83.3693 71.5098C117.029 43.2497 136.649 28.1297 153.929 34.6097C158.069 36.2297 160.769 38.2097 162.029 40.7297C162.029 39.6497 162.029 38.7497 161.849 37.6697Z"></path></g><g opacity="1"  transform="translate(435.92449951171875 14.2939453125)  rotate(0)"><path id="XMLID_56_" fill-rule="evenodd" style="fill:#BBCBFF" opacity="1" d="M111.82 267.231L128.02 259.671C135.4 256.251 139.36 248.691 138.64 241.131C138.46 239.151 138.1 237.171 137.2 235.371L50.98 40.4307C47.38 32.3307 38.02 28.7307 29.92 32.3307L9.4 41.5107C7.42 42.4107 5.62 43.6707 4.18 45.2907C0.04 49.7907 -1.22 56.4507 1.3 62.3907L86.98 257.871C91.12 267.411 102.46 271.551 111.82 267.231Z"></path><path id="XMLID_37_" fill-rule="evenodd" style="fill:#BBCBFF" opacity="1" d="M98.8555 148.43L180.035 111.89C190.835 106.85 194.796 94.07 189.395 83.99C188.855 82.91 188.315 82.01 187.596 81.11L128.375 6.41C123.695 0.47 115.775 -1.51 108.936 1.19L95.6155 6.41C93.0955 7.49 90.9355 8.93 89.3155 10.91C84.2755 16.85 83.5555 25.85 88.7755 32.51L121.715 74.09C124.415 77.51 123.875 82.19 120.995 84.89C120.275 85.61 119.555 86.15 118.655 86.51L53.1355 116.21L81.5755 156.17L98.8555 148.43Z"></path><path id="XMLID_34_" fill-rule="evenodd" style="fill:#99ADF9" opacity="1" d="M189.396 83.9861C187.415 88.1261 183.816 92.6261 177.336 96.4061C159.876 106.486 92.0155 134.026 92.0155 134.026L98.8555 148.426L180.035 111.886C190.836 106.846 194.796 94.0661 189.396 83.9861Z"></path><path id="XMLID_33_" fill-rule="evenodd" style="fill:#99ADF9" opacity="1" d="M138.82 241.126C132.52 245.626 115.06 252.106 107.86 255.346C100.12 258.766 99.76 256.966 98.68 254.266C97.78 251.926 21.46 83.4461 4.18 45.2861C0.04 49.7861 -1.22 56.4461 1.3 62.3861L86.98 257.866C91.12 267.406 102.46 271.546 111.82 267.226L128.02 259.666C135.4 256.246 139.36 248.686 138.82 241.126Z"></path><path id="XMLID_32_" fill-rule="evenodd" style="fill:#99ADF9" opacity="1" d="M134.674 71.9262C131.434 65.9862 96.1535 20.2662 89.1335 11.0862C84.0935 17.0262 83.3735 26.0262 88.5935 32.6862L121.534 74.2662C124.234 77.6862 123.694 82.3662 120.814 85.0662C127.654 81.8262 137.194 76.2462 134.674 71.9262Z"></path></g><g opacity="1"  transform="translate(210.41998291015625 0)  rotate(0)"><path id="XMLID_1_" fill-rule="evenodd" style="fill:#BBCBFF" opacity="1" d="M9.54 74.52C4.27 74.52 0 78.79 0 84.06C0 89.33 4.27 93.6 9.54 93.6C14.81 93.6 19.08 89.33 19.08 84.06C19.08 78.79 14.81 74.52 9.54 74.52Z"></path><path id="XMLID_11_" fill-rule="evenodd" style="fill:#BBCBFF" opacity="1" d="M9.54 37.26C4.27 37.26 0 41.53 0 46.8C0 52.07 4.27 56.34 9.54 56.34C14.81 56.34 19.08 52.07 19.08 46.8C19.08 41.53 14.81 37.26 9.54 37.26Z"></path><path id="XMLID_20_" fill-rule="evenodd" style="fill:#BBCBFF" opacity="1" d="M9.54 0C4.27 0 0 4.27 0 9.54C0 14.81 4.27 19.08 9.54 19.08C14.81 19.08 19.08 14.81 19.08 9.54C19.08 4.27 14.81 0 9.54 0Z"></path></g></g></g><defs><rect id="path_0" x="0" y="0" width="759.8821411132812" height="619.124267578125" rx="0" ry="0"/></defs></svg>